<svg xmlns="http://www.w3.org/2000/svg" width="200" height="200" viewBox="0 0 200 200"><path fill="#FFF" fill-rule="evenodd" d="M100.654 5c49.519 0 89.662 40.143 89.662 89.662 0 35.848-21.039 66.783-51.443 81.13l11.133 19.283-61.82-16.564 16.565-61.82 14.713 25.48 2.162-1.387c22.912-14.76 33.124-23.446 33.124-52.534 0-37.75-23.404-56.648-60.75-56.75-33.623-.091-65.075 23.547-65.075 63.162 0 24.1 9.658 57.387 26.569 77.475-26.618-15.55-44.501-44.424-44.501-77.475C10.993 45.142 51.135 5 100.654 5z"/></svg>