<svg xmlns="http://www.w3.org/2000/svg" width="200" height="200" viewBox="0 0 200 200"><path fill="#000" fill-rule="evenodd" d="M97 102.5v92.454c-27.57-.856-52.182-13.459-68.996-32.971 22.87-10.349 38.993-32.982 39.95-59.484H97zm74.994 59.483l-.802.921c-16.79 18.987-41.057 31.208-68.192 32.05v-92.455h29.045c.958 26.502 17.08 49.135 39.949 59.484zM138.049 102.5h56.919c-.53 20.487-7.545 39.36-19.068 54.643-21.546-9.1-36.874-30.027-37.85-54.643zM24.777 156.851l-.677.292C12.577 141.86 5.562 122.987 5.032 102.5h56.919c-.967 24.359-15.986 45.104-37.174 54.351zM97 5.046V96.5H67.91C66.59 70.43 50.587 48.236 28.007 38.017 44.817 18.505 69.429 5.902 97 5.047zm6 0c27.57.856 52.182 13.458 68.996 32.97-22.583 10.22-38.586 32.415-39.907 58.484h-29.09L103 5.046zM194.937 96.5h-56.84c1.346-24.181 16.55-44.665 37.8-53.64 11.339 15.032 18.312 33.54 19.04 53.64zm-133.034 0H5.063c.728-20.1 7.701-38.608 19.037-53.642 21.253 8.977 36.457 29.46 37.803 53.642z"/></svg>