<svg xmlns="http://www.w3.org/2000/svg" width="200" height="200" viewBox="0 0 200 200"><path fill="#000" fill-rule="evenodd" d="M100 5c52.467 0 95 42.533 95 95s-42.533 95-95 95-95-42.533-95-95S47.533 5 100 5zM45.628 85.463c-1.888 5.19-.054 10.622 4.098 12.134 4.152 1.51 9.049-1.471 10.938-6.661 1.888-5.19.054-10.622-4.098-12.133-4.152-1.511-9.049 1.47-10.938 6.66zm-22.552-8.208c-1.89 5.19-.055 10.622 4.097 12.133 4.152 1.511 9.049-1.47 10.938-6.66 1.889-5.19.054-10.623-4.097-12.134-4.152-1.51-9.05 1.471-10.938 6.661zm21.537-24.087c-1.89 5.19-.055 10.622 4.097 12.134 4.152 1.51 9.049-1.471 10.938-6.661 1.889-5.19.054-10.622-4.097-12.133-4.152-1.511-9.05 1.47-10.938 6.66z"/></svg>