<svg xmlns="http://www.w3.org/2000/svg" width="200" height="200" viewBox="0 0 200 200"><path fill="#000" fill-rule="evenodd" d="M100 5c24.672 0 47.148 9.405 64.037 24.826a96.49 96.49 0 00-6.043 6.304l-3.079-2.584a2 2 0 10-2.571 3.065l3.077 2.582A97.254 97.254 0 00148 49.77l-3.47-2.002a2 2 0 00-2 3.464l3.467 2.001a96.535 96.535 0 00-5.469 11.709l-3.754-1.365a2 2 0 00-1.368 3.758l3.753 1.366a96.285 96.285 0 00-3.337 12.486l-3.941-.695a2 2 0 00-.695 3.94l3.946.694A97.59 97.59 0 00134.02 98H130a2 2 0 000 4h4.02a97.589 97.589 0 001.113 12.874l-3.946.695a2 2 0 00.695 3.94l3.941-.696a96.285 96.285 0 003.337 12.486l-3.753 1.366a2 2 0 001.368 3.758l3.754-1.365a96.535 96.535 0 005.469 11.709l-3.467 2a2 2 0 002 3.465l3.47-2.002a97.254 97.254 0 007.42 10.577l-3.077 2.582a2 2 0 002.571 3.065l3.079-2.584a97.6 97.6 0 006.04 6.306C147.149 185.595 124.673 195 100 195c-24.423 0-46.694-9.216-63.523-24.36a97.64 97.64 0 006.876-7.169l3.554 2.983a2 2 0 102.571-3.065l-3.568-2.995a97.237 97.237 0 007.301-10.517l4.08 2.355a2 2 0 002-3.464l-4.09-2.362a96.522 96.522 0 005.371-11.61l4.475 1.627a2 2 0 101.368-3.758l-4.485-1.632a96.289 96.289 0 003.274-12.36l4.736.835a2 2 0 10.695-3.94l-4.747-.835A97.599 97.599 0 0066.98 102l4.842-.001a2 2 0 000-4H66.98a97.599 97.599 0 00-1.092-12.733l4.747-.836a2 2 0 00-.695-3.94l-4.736.836a96.29 96.29 0 00-3.274-12.36l4.485-1.632a2 2 0 00-1.368-3.758l-4.475 1.628a96.522 96.522 0 00-5.372-11.61l4.09-2.363a2 2 0 10-2-3.464l-4.079 2.355a97.237 97.237 0 00-7.301-10.517l3.568-2.995a2 2 0 00-2.571-3.065l-3.554 2.983a97.599 97.599 0 00-6.875-7.167C53.306 14.216 75.577 5 100 5zM40.288 39.1l-2.574 2.16a2 2 0 102.572 3.064l2.558-2.147a93.226 93.226 0 016.902 9.946l-2.848 1.645a2 2 0 102 3.464l2.836-1.637a92.541 92.541 0 015.078 10.978l-3.041 1.108a2 2 0 101.368 3.759l3.03-1.103a92.318 92.318 0 013.095 11.685l-3.141.554a2 2 0 00.694 3.939l3.13-.552a93.574 93.574 0 011.032 12.036L59.822 98a2 2 0 100 4l3.157.002a93.578 93.578 0 01-1.031 12.035l-3.13-.552a2 2 0 00-.695 3.94l3.14.553a92.318 92.318 0 01-3.094 11.685l-3.03-1.103a2 2 0 10-1.368 3.76l3.04 1.107a92.541 92.541 0 01-5.077 10.978l-2.836-1.637a2 2 0 00-2 3.464l2.848 1.645a93.226 93.226 0 01-6.902 9.946l-2.558-2.147a2 2 0 00-2.572 3.064l2.574 2.16a93.575 93.575 0 01-6.732 6.995C15.934 150.65 5 126.602 5 100c0-26.602 10.934-50.65 28.553-67.895a93.084 93.084 0 016.735 6.995zm126.649-6.513C184.268 49.797 195 73.645 195 100c0 26.355-10.732 50.203-28.063 67.413a92.717 92.717 0 01-5.878-6.115l3.049-2.558a2 2 0 00-2.572-3.064l-3.05 2.56a93.244 93.244 0 01-7.019-10.007l3.457-1.997a2 2 0 00-2-3.464l-3.461 1.997a92.555 92.555 0 01-5.173-11.076l3.761-1.37a2 2 0 10-1.368-3.759l-3.762 1.37a92.314 92.314 0 01-3.157-11.812l3.935-.694a2 2 0 10-.694-3.939l-3.931.693a93.568 93.568 0 01-1.053-12.176L142 102a2 2 0 000-4h-3.979a93.564 93.564 0 011.053-12.178l3.93.693a2 2 0 10.695-3.94l-3.935-.693a92.314 92.314 0 013.157-11.811l3.762 1.369a2 2 0 001.368-3.76l-3.761-1.37a92.555 92.555 0 015.173-11.075l3.46 1.997a2 2 0 002-3.464l-3.456-1.997a93.244 93.244 0 017.02-10.006l3.05 2.559a2 2 0 002.57-3.064l-3.048-2.558a93.573 93.573 0 015.198-5.465l.68-.65z"/></svg>