<svg xmlns="http://www.w3.org/2000/svg" width="200" height="200" viewBox="0 0 200 200"><path fill="#000" fill-rule="evenodd" d="M100 32c35.24 0 67.287 20.765 96.145 62.291a10 10 0 01.002 11.407l-.867 1.24C166.65 147.646 134.89 168 100 168c-35.24 0-67.287-20.765-96.145-62.291a10 10 0 01-.002-11.407l.867-1.24C33.35 52.354 65.11 32 100 32zm36.068 50a3.6 3.6 0 00-3.6 3.6v10.8h-10.8V85.6a3.6 3.6 0 00-7.2 0v10.8h-10.8V85.6a3.6 3.6 0 00-7.2 0v10.8h-10.8V85.6a3.6 3.6 0 10-7.2 0v10.8h-10.8V85.6a3.6 3.6 0 10-7.2 0v10.8h-10.8a3.6 3.6 0 100 7.2h10.8v10.8a3.6 3.6 0 007.2 0v-10.8h10.8v10.8a3.6 3.6 0 007.2 0v-10.8h10.8v10.8a3.6 3.6 0 007.2 0v-10.8h10.8v10.8a3.6 3.6 0 107.2 0v-10.8h10.8v10.8a3.6 3.6 0 107.2 0v-10.8h10.8a3.6 3.6 0 000-7.2h-10.8V85.6a3.6 3.6 0 00-3.6-3.6z"/></svg>