<svg xmlns="http://www.w3.org/2000/svg" width="200" height="200" viewBox="0 0 200 200"><path fill="#FFF" fill-rule="evenodd" d="M132.523 0c2.76 0 4.996 2.24 4.996 4.998V24.26h45.474c2.765 0 5.007 2.249 5.007 4.993V62H12V29.253c0-2.757 2.241-4.992 5.007-4.992l45.473-.001V4.998A5.003 5.003 0 0167.478 0h65.046zM62.572 71.999v102.538c0 .554.447 1.006.998 1.006h10.196c.55 0 .998-.45.998-1.006L74.763 72h50.118v102.538c0 .514.386.941.882 1l.116.006h10.196c.55 0 .998-.45.998-1.006L137.072 72H175v123.003a4.998 4.998 0 01-5 4.998H31c-2.761 0-5-2.235-5-4.998V71.999h36.572z"/></svg>