<svg xmlns="http://www.w3.org/2000/svg" width="200" height="200" viewBox="0 0 200 200"><path fill="#FFF" fill-rule="evenodd" d="M51 136l3.75 15.004C58.425 165.694 71.624 176 86.767 176H140a8 8 0 008-8v-32c-14.544 4-30.044 6-46.5 6s-33.29-2-50.5-6zm146-31c-3.493 4.62-6.558 8.115-9.197 10.482l-.303.268c-2.706 2.368-7.54 5.785-14.5 10.25l4.393 10.433A14 14 0 00190.296 145H197v-40zm-97-77C46.428 28 3 51.729 3 81s43.428 53 97 53 97-23.729 97-53-43.428-53-97-53zm90.296-11a14 14 0 00-12.903 8.567L173 36l1.609 1.038c5.927 3.847 10.151 6.855 12.673 9.023l.218.189c2.706 2.368 5.873 5.951 9.5 10.75V17h-6.704z"/></svg>