<svg xmlns="http://www.w3.org/2000/svg" width="200" height="200" viewBox="0 0 200 200"><path fill="#000" fill-rule="evenodd" d="M160 125c11.046 0 20 8.954 20 20s-8.954 20-20 20-20-8.954-20-20 8.954-20 20-20zm-120 0c11.046 0 20 8.954 20 20s-8.954 20-20 20-20-8.954-20-20 8.954-20 20-20zm110-90c27.338 0 49.552 21.94 49.993 49.173L200 85v60h-10c0-16.569-13.431-30-30-30-16.569 0-30 13.431-30 30H70c0-16.569-13.431-30-30-30-16.569 0-30 13.431-30 30H0v-40c0-11.046 8.954-20 20-20h40l14.971-37.428A20 20 0 0193.541 35H150z"/></svg>