<svg xmlns="http://www.w3.org/2000/svg" width="200" height="200" viewBox="0 0 200 200"><path fill="#000" fill-rule="evenodd" d="M100.5 35c24.577 0 44.5 18.013 44.5 39l-.01 1.126c-.122 7.853-1.469 24.295-4.47 42.63L107 120.79l32.546 2.65-.38 2.086C132.84 159.668 120.82 197 100.5 197c-13.79 0-23.758-17.195-30.717-38.918L105 155.737l-36.763-2.72c-6.435-22.106-9.986-47.697-11.442-64.5L95 84.841l-38.774-4.147-.057-1.06C56.055 77.391 56 75.491 56 74c0-20.987 19.923-39 44.5-39zm0-34c3.51 0 6.654 7.25 8.763 14.771l.878-.665c7.212-5.404 16.666-10.874 19.926-8.138 4.076 3.42-2.795 18.596-7.563 26.5-6.488-2.875-14-4.468-22.004-4.468-7.63 0-14.813 1.447-21.089 4.071l-.323-.55c-4.721-8.11-10.922-22.266-7.004-25.553 3.25-2.727 12.654 2.7 19.858 8.086l.214-.724C94.25 7.35 97.214 1 100.5 1z"/></svg>