<svg xmlns="http://www.w3.org/2000/svg" width="200" height="200" viewBox="0 0 200 200"><path fill="#FFF" fill-rule="evenodd" d="M180 24c7.18 0 13 5.82 13 13a12.99 12.99 0 01-6.034 10.978C190.866 58.24 193 69.37 193 81c0 24.274-9.3 46.376-24.53 62.937l10.192 17.653c2.761 4.783 1.123 10.899-3.66 13.66-4.783 2.762-10.9 1.123-13.66-3.66l-8.223-14.243C138.059 167.844 119.749 174 100 174c-20.06 0-38.635-6.35-53.827-17.151l-8.511 14.741c-2.761 4.783-8.877 6.422-13.66 3.66-4.783-2.761-6.422-8.877-3.66-13.66l10.578-18.324C16.05 126.781 7 104.948 7 81c0-11.63 2.135-22.76 6.033-33.022A12.991 12.991 0 017 37c0-7.18 5.82-13 13-13h160z"/></svg>