<svg xmlns="http://www.w3.org/2000/svg" width="200" height="200" viewBox="0 0 200 200"><path fill="#FFF" fill-rule="evenodd" d="M160 135c11.046 0 20 8.954 20 20s-8.954 20-20 20-20-8.954-20-20 8.954-20 20-20zm-120 0c11.046 0 20 8.954 20 20s-8.954 20-20 20-20-8.954-20-20 8.954-20 20-20zm20-80l.001 77.64A29.888 29.888 0 0040 125c-16.569 0-30 13.431-30 30H0V75c0-11.046 8.954-20 20-20h40zm70 100H70v-20l67.64-.001A29.888 29.888 0 00130 155zm70-20v20h-10a29.888 29.888 0 00-7.64-20.001L200 135zM177.133 24.156l23.024 49.376c-17.942 33.759-73.277 59.562-110.67 51.607L66.463 75.763C84.405 42.004 139.74 16.2 177.133 24.156z"/></svg>