<svg xmlns="http://www.w3.org/2000/svg" width="200" height="200" viewBox="0 0 200 200"><path fill="#FFF" fill-rule="evenodd" d="M100 8c50.81 0 92 41.19 92 92s-41.19 92-92 92-92-41.19-92-92S49.19 8 100 8zm1.886 140.39l-6.42 12.92 17.926 10.35 7.441-16.488-18.947-6.783zm-60.312-45.62l-15.885 10.437 6.096 12.187 17.996-7.64-8.207-14.984zM124.7 86l-13.45-2.75L99.4 90.6l1.15 18.4H127l-2.3-23zm34.465-29.886L141.79 66.27l5.77 13.224 19.452-7.08-7.847-16.299zm-76.58-10.226l-22.36.12-1.794 15.93L68.5 68l12.581-2.068 1.504-20.044z"/></svg>