<svg xmlns="http://www.w3.org/2000/svg" width="200" height="200" viewBox="0 0 200 200"><path fill="#000" fill-rule="evenodd" d="M110 54a5 5 0 015 5v66h72a4 4 0 014 4v26H10v-26a4 4 0 014-4h71V59a5 5 0 015-5h20zm-65.75-8.25c11.744 1.678 27.115 8.376 35.751 15.277V120l-67.974.001C5.126 111.365 1 101.414 1 89.5c0-44 11.75-48.25 43.25-43.75zM199.001 89.5c0 11.914-4.126 21.865-11.027 30.501L120 120V61.027c8.636-6.901 24.008-13.6 35.751-15.277 31.5-4.5 43.25-.25 43.25 43.75zM105 0a5 5 0 015 5v10h11a4 4 0 014 4v12a4 4 0 01-4 4h-11v10a5 5 0 01-5 5H95a5 5 0 01-5-5V35H79a4 4 0 01-4-4V19a4 4 0 014-4h11V5a5 5 0 015-5h10zm-5 16.5a8.5 8.5 0 100 17 8.5 8.5 0 000-17zM9 159h182c4.97 0 9 4.13 9 9.225v22.55c0 5.095-4.03 9.225-9 9.225H9c-4.97 0-9-4.13-9-9.225v-22.55C0 163.13 4.03 159 9 159z"/></svg>