<svg xmlns="http://www.w3.org/2000/svg" width="200" height="200" viewBox="0 0 200 200"><path fill="#FFF" fill-rule="evenodd" d="M100 47c28.264 0 51.36 22.124 52.917 50H196a3 3 0 010 6l-43.084.001C151.36 130.876 128.264 153 100 153c-28.264 0-51.36-22.124-52.916-49.999L4 103a3 3 0 010-6h43.083C48.64 69.124 71.736 47 100 47zm0 57.95l-30.668 30.667A46.817 46.817 0 00100 147a46.817 46.817 0 0030.668-11.383L100 104.95zM53 100c0 12.08 4.557 23.094 12.045 31.42l30.712-30.713-31.374-31.375A46.817 46.817 0 0053 100zm82.617-30.668l-31.374 31.375 30.712 30.712C142.443 123.094 147 112.08 147 100a46.817 46.817 0 00-11.383-30.668zM100 53c-12.08 0-23.094 4.557-31.42 12.045L100 96.465l31.42-31.42C123.093 57.557 112.08 53 100 53z"/></svg>