<svg xmlns="http://www.w3.org/2000/svg" width="200" height="200" viewBox="0 0 200 200"><path fill="#FFF" fill-rule="evenodd" d="M32 29a3 3 0 013 3v136a3 3 0 01-6 0v-65H4a3 3 0 010-6h25V32a3 3 0 013-3zm100 0a3 3 0 013 3v136a3 3 0 01-6 0V32a3 3 0 013-3zM70 64a3 3 0 013 3v66a3 3 0 01-6 0V67a3 3 0 013-3zm100 0a3 3 0 013 3v30h23a3 3 0 010 6h-23v30a3 3 0 01-6 0V67a3 3 0 013-3zM77.5 97a3 3 0 010 6h-1a3 3 0 010-6zm12 0a3 3 0 010 6h-1a3 3 0 010-6zm12 0a3 3 0 010 6h-1a3 3 0 010-6zm12 0a3 3 0 010 6h-1a3 3 0 010-6zm12 0a3 3 0 010 6h-1a3 3 0 010-6z"/></svg>