<svg xmlns="http://www.w3.org/2000/svg" width="200" height="200" viewBox="0 0 200 200"><path fill="#FFF" fill-rule="evenodd" d="M100 47c28.264 0 51.36 22.124 52.917 50H196a3 3 0 010 6l-43.084.001C151.36 130.876 128.264 153 100 153c-28.264 0-51.36-22.124-52.916-49.999L4 103a3 3 0 010-6h43.083C48.64 69.124 71.736 47 100 47zm0 6c-25.957 0-47 21.043-47 47s21.043 47 47 47 47-21.043 47-47-21.043-47-47-47zm3.604 29l12.5 35.23h-6.64l-3.003-9.107H93.497l-3.003 9.106H84L96.5 82h7.104zm-3.54 6.226h-.17l-4.932 15.039h10.01l-4.908-15.04z"/></svg>