<svg xmlns="http://www.w3.org/2000/svg" width="200" height="200" viewBox="0 0 200 200"><path fill="#FFF" fill-rule="evenodd" d="M100 24c65.825 0 100 57.882 100 76.382 0 18.5-34.175 76.382-100 76.382S0 118.882 0 100.382C0 81.882 34.175 24 100 24zm0 18.947c-24.343 0-45.143 9.54-61.295 25.704-6.53 6.534-11.899 13.832-15.59 20.832-1.56 2.96-2.734 5.713-3.47 8.035a21.952 21.952 0 00-.577 2.155l-.072.376-.056.333.079.458c.12.646.327 1.462.627 2.406.735 2.321 1.91 5.075 3.47 8.034 3.69 7.001 9.059 14.298 15.589 20.833 16.152 16.163 36.952 25.703 61.295 25.703 24.343 0 45.143-9.54 61.295-25.703 6.53-6.535 11.899-13.832 15.59-20.833 1.56-2.959 2.734-5.713 3.47-8.034.261-.826.453-1.554.577-2.156l.072-.375.055-.333-.078-.458a20.65 20.65 0 00-.627-2.406c-.735-2.322-1.91-5.076-3.47-8.035-3.69-7-9.059-14.298-15.589-20.832C145.143 52.488 124.343 42.947 100 42.947zm0 1.154c29.696 0 53.769 24.073 53.769 53.768 0 29.696-24.073 53.77-53.769 53.77-29.696 0-53.769-24.074-53.769-53.77 0-29.695 24.073-53.768 53.769-53.768zm-1.284 27.18c-3.265 0-6.399.563-9.308 1.598 5.847 2.727 9.899 8.659 9.899 15.536 0 9.464-7.672 17.136-17.135 17.136-4.245 0-8.13-1.544-11.124-4.101 1.216 14.214 13.139 25.372 27.668 25.372 15.337 0 27.77-12.434 27.77-27.77 0-15.338-12.433-27.772-27.77-27.772z"/></svg>