<svg xmlns="http://www.w3.org/2000/svg" width="200" height="200" viewBox="0 0 200 200"><path fill="#FFF" fill-rule="evenodd" d="M88 2c27.956 10.385 49.881 34.216 49.881 71.497 0 6.898-.765 13.554-2.188 19.822 17.503-2.678 34.224-9.857 48.318-21.044.526 14.245-2.822 28.807-10.476 42.066-5.348 9.261-12.297 17.02-20.297 23.13 12.244-5.347 24.868-12.053 38.262-21.721-6.938 42.68-35.293 72.454-70.735 80.842 10.842-3.65 17.985-9.884 17.985-16.96 0-6.77-15.4-21.978 0-39.13-10.336 0-19.859 7.101-27.722 12.566-.261-2.865-.821-5.892-1.678-9.082-1.94-7.225-13.315-10.071-14.56-15.01-1.307-5.18 2.333-12.506 10.92-21.976-23.147 5.36-34.72 13.669-34.72 24.925 0 10.72 13.44 17.689 12.88 22.781-.377 3.426-3.36 6.164-5.504 7.373-6.27-5.372-16.019-11.117-23.616-9.517 14 9.38 3.36 21.906 3.36 27.07 0 5.85 4.885 11.126 12.706 14.841C39.46 184.46 15.158 158.69 8.75 126l4.847 3.568c4.633 3.393 8.102 5.875 10.406 7.445-6.041-10.16-9.253-23.318-9.253-40.513 0-21 10-33.5 26.5-46.5-6.123 14.388-3.082 29.86 7.065 43.404C48.105 90.253 48 86.95 48 83.5 48 46 109.5 24.75 88 2z"/></svg>