<svg xmlns="http://www.w3.org/2000/svg" width="200" height="200" viewBox="0 0 200 200"><path fill="#FFF" fill-rule="evenodd" d="M100 5c52.467 0 95 42.533 95 95s-42.533 95-95 95-95-42.533-95-95S47.533 5 100 5zm.463 125.002L100 130c-15.464 0-28 6.268-28 14s12.536 14 28 14 28-6.268 28-14c0-7.655-12.287-13.874-27.537-13.998zM61.168 85.19c-2.147 5.434-5.585 7.81-11.168 7.81-5.583 0-9.02-2.376-11.168-7.81-1.018-2.574-3.966-3.85-6.585-2.85-2.62 1-3.918 3.897-2.9 6.47 3.649 9.233 10.819 14.19 20.653 14.19 9.834 0 17.004-4.957 20.653-14.19 1.018-2.573-.28-5.47-2.9-6.47s-5.567.276-6.585 2.85zm100 0c-2.147 5.434-5.585 7.81-11.168 7.81-5.583 0-9.02-2.376-11.168-7.81-1.018-2.574-3.966-3.85-6.585-2.85-2.62 1-3.918 3.897-2.9 6.47 3.649 9.233 10.819 14.19 20.653 14.19 9.834 0 17.004-4.957 20.653-14.19 1.018-2.573-.28-5.47-2.9-6.47s-5.567.276-6.585 2.85z"/></svg>