<svg xmlns="http://www.w3.org/2000/svg" width="200" height="200" viewBox="0 0 200 200"><path fill="#FFF" fill-rule="evenodd" d="M198.004 0C199.107 0 200 .892 200 1.996v196.008a1.997 1.997 0 01-1.994 1.996h-62.292v-78.571h28.572l7.143-28.572h-35.715V71.43c0-4.862 7.143-14.286 14.286-14.286h21.429V28.57c-5.47-.78-18.59 0-28.572 0-11.805 0-18.4 5.11-25.474 12.054-7.075 6.944-10.24 18.13-10.24 30.804v21.428H78.57v28.572h28.572V200H1.998A1.995 1.995 0 010 198.004V1.996C0 .893.892 0 1.996 0h196.008z"/></svg>