<svg xmlns="http://www.w3.org/2000/svg" width="200" height="200" viewBox="0 0 200 200"><path fill="#FFF" fill-rule="evenodd" d="M185.429 1.319C194.75 9.75 187 47.25 184 55c-15.97 41.258-38.677 62.088-89.186 57.781l-.071 1.542-.067 1.653c-.2 5.303-.277 11.253-.197 17.927l.03 2.084c.35 21.226 3.375 39.617 5.037 48.801l.887 4.84.093.538c.018.106.033.202.046.288a8.257 8.257 0 01-6.473 9.319l-.24.05c-4.533.942-8.97-1.973-9.909-6.51a8.269 8.269 0 01-.092-.533l-.107-.862-.124-.85c-.42-2.735-1.324-7.658-2.318-15.509l-.313-2.556c-1.093-9.171-2.244-21.867-2.958-39.028l-.037-.924c-.72-17.857.798-31.333 1.734-42.21C82 64.5 94.508 45.848 118.5 37l11.066-4.074 2.961-1.105c3.978-1.495 7.329-2.806 9.29-3.716l1.976-.937 2.536-1.214c2.75-1.32 5.27-2.552 7.593-3.71l1.285-.643 1.83-.926 1.265-.648c14.92-7.681 20.453-12.032 27.127-18.708zM1.75 1.25c23 3.5 41.831 12.832 51.5 18 12.79 6.836 21.196 20.915 29.345 37.84C74.827 66.395 71.077 86.895 71 109 38.077 95.645 24.75 80.75 13.5 61.5S-.75 22.25 1.75 1.25z"/></svg>