<svg xmlns="http://www.w3.org/2000/svg" width="200" height="200" viewBox="0 0 200 200"><path fill="#FFF" fill-rule="evenodd" d="M145 45c30.376 0 55 24.624 55 55s-24.624 55-55 55H55c-30.376 0-55-24.624-55-55s24.624-55 55-55h90zM61 74H49a4 4 0 00-4 4v12H33a4 4 0 00-4 4v12a4 4 0 004 4h12v12a4 4 0 004 4h12a4 4 0 004-4v-12h12a4 4 0 004-4V94a4 4 0 00-4-4l-12-.001V78a4 4 0 00-4-4zm72 24c-7.732 0-14 6.268-14 14s6.268 14 14 14 14-6.268 14-14-6.268-14-14-14zm24-24c-7.732 0-14 6.268-14 14s6.268 14 14 14 14-6.268 14-14-6.268-14-14-14z"/></svg>