<svg xmlns="http://www.w3.org/2000/svg" width="200" height="200" viewBox="0 0 200 200"><path fill="#FFF" fill-rule="evenodd" d="M127.902 127.749l26.926 24.55L103 198.223v-49.89l24.902-20.584zm-55.804 0L97 148.333v49.889L45.172 152.3l26.926-24.551zm84.194-73.971v92.443L131 122.248V77.751l25.292-23.973zm-112.584 0L69 77.751v44.497L43.708 146.22V53.778zM100 55.206l26 21.667v46.253l-26 21.667-26-21.666V76.872l26-21.666zm3-53.43l51.828 45.923L127.9 72.251 103 51.667V1.776zm-6 .001v49.89L72.099 72.251 45.172 47.699 97 1.777z"/></svg>