<svg xmlns="http://www.w3.org/2000/svg" width="200" height="200" viewBox="0 0 200 200"><path fill="#000" fill-rule="evenodd" d="M100 3c40.317 0 73 32.683 73 73v107.457a6 6 0 01-10.444 4.031l-8.085-11.911a6 6 0 00-8.698-.2l-16.249 19.343a6 6 0 01-8.302.2l-.208-.2-16.447-19.542a6 6 0 00-8.302-.2l-.208.2-16.472 19.567a6.008 6.008 0 01-8.487.026l-16.589-19.478a6 6 0 00-8.485.028l-.16.167-8.448 12.186A6 6 0 0127 183.612V76l.01-1.207C27.654 35.033 60.086 3 100 3zm41 57c-8.284 0-15 6.716-15 15 0 8.284 6.716 15 15 15 8.284 0 15-6.716 15-15 0-8.284-6.716-15-15-15zm-50 0c-8.284 0-15 6.716-15 15 0 8.284 6.716 15 15 15 8.284 0 15-6.716 15-15 0-8.284-6.716-15-15-15z"/></svg>