<svg xmlns="http://www.w3.org/2000/svg" width="200" height="200" viewBox="0 0 200 200"><path fill="#FFF" fill-rule="evenodd" d="M100 0c55.228 0 100 44.772 100 100s-44.772 100-100 100S0 155.228 0 100 44.772 0 100 0zm50.25 108.75c-5 0-10.5 8.5-17.75 13.25l-1.788 1.167C118.14 131.35 114 133.676 114 144.5c0 11.209 5.636 20.316 28.308 20.497L143 165c13.75 0 21.25-3.75 29.75-17.5l.399-.655c1.573-2.62 3.63-6.45 5.572-10.457l.776-1.623.634-1.366c3.336-7.274 5.806-14.28 3.869-14.899-4.523-1.447-8.25 0-16.5-1-2.62-.318-6-8.75-17.25-8.75zm-79.767 24.08l-1.169-.415c-5.723-1.96-10.62-1.738-12.314 3.585-1.722 5.411 2.227 7.234 8.04 9.36l.287.105C71.295 147.637 81 147.25 81 141.25c0-5.8-4.805-6.422-10.517-8.42zm32.017-21.08c-4.912-1.461-6.45 1.954-7.87 6.31l-.465 1.453a96.726 96.726 0 01-.594 1.823l-.486 1.382c-2.02 5.874-2.16 12.782 4.415 12.782 6.64 0 6.433-2.63 8.491-8.396l.29-.813c2.02-5.859 2.462-12.684-3.781-14.541zM94.436 13H94c-27.5 0-48.45 11.223-65.75 34.75C9.5 73.25 11.48 110.78 14 112.25c12 7 20 7 25.25 4.75 2.11-.904 3.373-2.725 4.623-4.585l.588-.87.432-.616c1.607-2.239 3.538-4.179 7.357-4.179 10.461 0 10.5 11.75 18.25 18 3.59 2.895 11.83.545 13.5-6.75.378-1.652.035-4.181-.468-6.978l-.715-3.834-.15-.831c-.632-3.6-1.043-7.105-.167-9.357 1.676-4.306 14.25-2.75 17.5-4.25s10.988-10.403 10.75-18C110.488 66.403 100 56.59 100 54c0-4.572 10.047-5.423 17-10l.376-.254c4.546-3.151 10.448-10.138 13.124-24.246.625-3.296-21.582-6.437-36.064-6.5zm39.814 31.75c-5.206-2.603-7.645.816-10.273 5.36l-1.227 2.14c-3.176 5.5-4.13 13.731-1.5 15.25 2.63 1.519 8.824-.25 12-5.75l.374-.656c3.085-5.498 6.392-13.46.626-16.344z"/></svg>