<svg xmlns="http://www.w3.org/2000/svg" width="200" height="200" viewBox="0 0 200 200"><path fill="#FFF" fill-rule="evenodd" d="M100 0c55.228 0 100 44.772 100 100s-44.772 100-100 100S0 155.228 0 100 44.772 0 100 0zm8 159.75l-.568.006c-5.175.107-9.432 1.724-9.432 6.494 0 4.453 3.463 5.588 3.97 5.741l.422.122c4.99 1.39 15.608 2.626 15.608-2.187 0-4.943-4.572-10.176-10-10.176zm40.16-19.305l-.611.695-1.049 1.195c-.443.5-.88.976-1.312 1.408l-.848.835c-.732.714-1.52 1.474-2.282 2.269l-.335.354-.485.53c-2.871 3.205-4.933 6.902-1.488 10.519 5.296 5.561 11.78-.31 14.923-4.772L155 153c.407-.61.891-1.247 1.41-1.906l1.545-1.942.577-.746c2.71-3.567 4.838-7.472.718-10.906-4.5-3.75-8-.522-11.09 2.945zM104.75 86c-6.173 0-12.257 11-16 11C84.258 97 81 86 69 86c-3.338 0-7.204 6.04-14.5 12.75-8.85 8.14-23.391.066-21 19.75 3.25 26.75 34.053 13.377 43.75 16.75 11.5 4 14.646 13.733 27.5 12.75 12.589-.963 20.5-18.584 20.5-22 0-4.727-14.25-40-20.5-40zm55.6 25.41c-5.308 1.83-4.816 5.218-3.72 8.482l.124.363.192.54.13.357c.302.83.6 1.639.802 2.394l.104.381c1.139 4.083 3.684 10.508 8.907 8.475 7.439-2.897 6.018-8.959 3.934-12.638a19.054 19.054 0 01-.836-1.724l-.76-1.756c-1.496-3.377-3.49-6.73-8.877-4.874zM98 50.5c-1.15 0-2.3.017-3.443.055l-.76.028-.767.034C82.967 51.117 74 53.313 74 59.25c0 6.904 9.5 11.25 20 13.25.955.182 1.932.36 2.92.53l.66.113c9.7 1.619 20.17 2.243 20.17-3.893 0-6.904-7.876-18.75-19.75-18.75z"/></svg>