<svg xmlns="http://www.w3.org/2000/svg" width="200" height="200" viewBox="0 0 200 200"><path fill="#FFF" fill-rule="evenodd" d="M100 0c55.228 0 100 44.772 100 100s-44.772 100-100 100S0 155.228 0 100 44.772 0 100 0zm2.5 107c-19.606 0-39.75 13.655-39.75 30.5s13.394 32.75 33 32.75c3.098 0 4.34 3.349 5.422 7.157l.262.938.445 1.604c1.202 4.256 2.658 8.301 6.621 8.301 14.5 0 51.75-9.75 66.5-41 2.856-6.051-4.784-11.045-13.907-15.637l-.99-.494a244 244 0 00-2.352-1.147l-.786-.377c-2.36-1.131-4.73-2.243-6.965-3.345-1.422-.702-3.457-.928-5.597-1.07l-2.778-.165c-3.209-.21-6.16-.607-7.125-2.515-5.466-10.797-17.422-15.5-32-15.5zm46.26-80.247l-.471-.315-.492-.321c-7.548-4.895-26.422-15.158-39.547-13.867-7.593.747-23.5 17-23.5 23 0 3.001 3.34 10.032 10.25 8.25 2.334-.602 5.076-2.21 7.88-3.976l3.31-2.098c4.387-2.75 8.598-5.065 11.31-3.676 3.775 1.933-6.274 13.592-12.5 16-4.55 1.76-11.582 2.05-15.5 5-2.796 2.105-2.746 8.805-4.75 11.25-5.022 6.13-10 8.35-10 12 0 3.754 3.606 17 10 17 11.75 0 11.75-13.5 18.5-13.5 3 0 4.667 2.321 6.251 4.9l.95 1.562.291.465c1.61 2.548 3.458 4.823 6.758 4.823l.573-.005C126.956 93.092 122 89.238 122 79.5c0-2.788 8.36-.974 13-4 2.76-1.8 2.75-4.25 5.5-11 1.904-4.674 8.648-4.624 17.5-1.5 4.25 1.5 6.667 9.833 1 12.5-2.295 1.08-22.32-3.993-21.25 7.25 1 10.5 19 5 18 12.25-.636 4.613-5.448 6.213-5.25 10.5.355 7.67 7.682 14.361 12.25 17.75 8.295 6.154 21.714 1.597 22 0 10.35-57.73-19.113-83.36-31.456-93.068L150.5 28c-.399-.315-.988-.74-1.74-1.247zM72.75 39c-4.688-4.688-11.554.952-15.828 5.98l-.549.655-.38.46C52.02 50.938 48.52 56.284 52.75 60.75c4.44 4.688 11.058-.707 15.326-5.728l1.077-1.287.545-.662c3.81-4.664 7.267-9.858 3.052-14.073z"/></svg>