<svg xmlns="http://www.w3.org/2000/svg" width="200" height="200" viewBox="0 0 200 200"><path fill="#FFF" fill-rule="evenodd" d="M100 0c55.228 0 100 44.772 100 100s-44.772 100-100 100S0 155.228 0 100 44.772 0 100 0zM74.5 14.25c-2.21.45-4.09 8.512-4 12 .097 3.737 4 4.759 4 8.25 0 3.823-.203 7.468-.216 10.696v.64C74.314 53.026 75.449 58 82.25 58c7.25 0 7.215-8.167 12.5-9.75 2.238-.67 4.44.629 6.605 2.132l1.126.794c1.87 1.322 3.711 2.567 5.519 2.574 5.63.021 7.5-6.5 11-6.5 7.102 0 18.856 16.658 18.75 17.25C135.133 79.113 98.78 70 93.5 70c-15.74 0-30.75 10.75-30.75 31.75s9 24 34 24c8.348 0-4.556 33.087 15.5 37.25 7.553 1.568 21.045-10.865 24.75-28l.294-1.39c1.58-7.633 1.697-11.185 1.705-13.363l.001-.497c0-2.25 11.25 2 11.25-7 0-3.707-14.055-16.802-16-27.5-.61-3.358 11 3.25 23.25 0 2.375-.63 1.79-7.007 5.75-8.5 4.476-1.687 19.689 1.46 20.75 0 1.168-1.606-.697-16.573-24.764-38.58l-.736-.67c-12.88-11.636-18.621-16.832-37.75-22.5-15.025-4.452-37.492-2.531-46.25-.75z"/></svg>