<svg xmlns="http://www.w3.org/2000/svg" width="200" height="200" viewBox="0 0 200 200"><path fill="#FFF" fill-rule="evenodd" d="M100 0c55.228 0 100 44.772 100 100s-44.772 100-100 100S0 155.228 0 100 44.772 0 100 0zM48.75 28.75c-21.447 14.927-31 41.94-31 45.5 0 9 14.216 17.498 18.5 18.25 14.25 2.5 38.5 13 38.5 19.5v22.5c0 3.157 11 8.25 11 15.25 0 13.436.804 25.958 7 26.25 21.25 1 20.567-19.17 24.75-26.25 9.75-16.5 20.75-7.75 20.75-27.75s-13-22-32.25-22c-4.433 0-19.111-2.26-33.5-14.25C71 84.5 71 81 73.25 77c2.464-4.381 8.093-2.77 13.97-1.21l.737.193c6.14 1.61 12.418 2.892 15.543-2.983 3.222-6.057-.73-10.586-4.393-14.99l-.437-.529c-3.264-3.957-6.051-7.86-2.92-12.731 4.746-7.382 9.615-10.21 10.25-12.75 1.58-6.318-.729-17.179-2.5-17.75-7.057-2.277-36.117 1.532-54.75 14.5zm102.5 43.5c-2 8.5 1 21.25 11.5 33s24.75 4.5 24.75 2v-1.067c-.02-9.35-.52-37.893-13-48.933-1.983-1.754-21.25 6.5-23.25 15z"/></svg>