<svg xmlns="http://www.w3.org/2000/svg" width="200" height="200" viewBox="0 0 200 200"><path fill="#000" fill-rule="evenodd" d="M100 19c27.614 0 50 22.386 50 50 0 14.458-6.137 27.483-15.948 36.612l16.615 19.027A29.866 29.866 0 01165 121c16.569 0 30 13.431 30 30 0 16.569-13.431 30-30 30-16.569 0-30-13.431-30-30a29.89 29.89 0 017.795-20.173l-16.724-19.153C118.48 116.32 109.553 119 100 119c-9.826 0-18.99-2.834-26.718-7.73l-16.594 19.002A29.899 29.899 0 0165 151c0 16.569-13.431 30-30 30-16.569 0-30-13.431-30-30 0-16.569 13.431-30 30-30 4.915 0 9.554 1.182 13.648 3.277L65.4 105.095C55.909 95.995 50 83.187 50 69c0-27.614 22.386-50 50-50z"/></svg>