<svg xmlns="http://www.w3.org/2000/svg" width="200" height="200" viewBox="0 0 200 200"><path fill="#000" fill-rule="evenodd" d="M99 3c6.768 0 9.656 5.457 9.656 12.188v74.265a3.092 3.092 0 003.092 3.092 3.107 3.107 0 003.105-3.106V30.024c0-6.73 4.486-12.187 11.254-12.187 6.767 0 12.254 5.456 12.254 12.187v31.7c-4.966 3.567-8.15 9.24-8.15 14.957l-.001 25.417-.504.054C108.262 104.587 99 116.955 99 141.798c0 1.768 1.422 3.202 3.176 3.202 1.755 0 3.177-1.434 3.177-3.202 0-22.913 7.816-32.302 28.227-33.555l2.983-.183V76.68c0-5.471 5.015-11.396 11.741-12.186.317-.018.64-.027.966-.027 10.148 0 15.73 8.636 15.73 15.367v57.228l-.137.01C162.663 171.088 134.225 198 99.467 198 63.274 198 35 168.82 35 132.823V66.057C35 59.327 37.732 54 44.5 54s10.877 5.326 10.877 12.057v35.551a3.13 3.13 0 003.13 3.13 3.133 3.133 0 003.132-3.132V30.024C61.64 23.294 65.232 18 72 18c6.768 0 10.016 5.293 10.016 12.024V89.95a3.131 3.131 0 006.263 0V15.187C88.279 8.457 92.232 3 99 3z"/></svg>