<svg xmlns="http://www.w3.org/2000/svg" width="200" height="200" viewBox="0 0 200 200"><path fill="#FFF" fill-rule="evenodd" d="M148.001 82.86c9.389 0 17 7.61 17 17v38l-.204-.001-.007.09c-2.696 33.533-30.912 59.91-65.322 59.91-34.44 0-61.711-26.424-64.27-60H35v-14.584a17.933 17.933 0 0012.001 4.584c6.966 0 13.008-3.957 16-9.747 2.992 5.79 9.034 9.747 16 9.747 9.941 0 18-8.059 18-18v-3.195c2.842 3.364 6.872 5.425 11.346 5.67C94.985 119.96 86 134.127 86 150.359a3 3 0 106 0c0-20.97 17.445-38 39-38a3 3 0 100-6c-.27 0-.538.003-.806.006l-.096-.004-20.848-.002c-5.69 0-10.5-4.641-10.5-12s4.06-11.5 9.75-11.5h39.5zm-69-20l.305.003c6.486.162 11.695 5.47 11.695 11.996v35c0 6.526-5.209 11.835-11.695 11.996l-.305.004c-6.627 0-12-5.372-12-12v-35c0-6.627 5.373-12 12-12zm-32 13a12 12 0 0110.79 6.74l.227.497.122.29.105.272.113.315.11.336.116.402.037.14.065.263c.054.232.101.466.142.703l.07.457c.03.236.055.475.072.715l.023.433.007.254.001 22.182c0 6.526-5.209 11.835-11.695 11.996l-.305.004c-6.627 0-12-5.372-12-12v-22c0-6.627 5.373-12 12-12zm44.33-63.76l16.152 64.789c-4.216.245-7.87 2.02-10.483 4.994L97 74.859c0-9.94-8.059-18-18-18-.415 0-.828.014-1.236.042l-9.722-38.995c-1.603-6.43 2.31-12.943 8.74-14.547 6.431-1.603 12.944 2.31 14.548 8.74zm53.887-8.74c6.43 1.603 10.344 8.115 8.74 14.546l-14.7 58.953h-24.734l16.147-64.76c1.604-6.43 8.117-10.343 14.547-8.74z"/></svg>