<svg xmlns="http://www.w3.org/2000/svg" width="200" height="200" viewBox="0 0 200 200"><path fill="#FFF" fill-rule="evenodd" d="M40 0h120c5.523 0 10 4.477 10 10s-4.477 10-10 10H40c-5.523 0-10-4.477-10-10S34.477 0 40 0zm0 180h120c5.523 0 10 4.477 10 10s-4.477 10-10 10H40c-5.523 0-10-4.477-10-10s4.477-10 10-10zm0-157.5a7.5 7.5 0 017.5 7.5v2.716c0 15.548 6.385 29.844 18.37 41.362l.488.465c14.707 13.866 14.854 36.45.441 50.491l-.44.423c-12.3 11.597-18.859 26.07-18.859 41.827V170a7.5 7.5 0 11-15 0v-2.716c0-19.769 8.146-37.966 23.063-52.26l.505-.481c8.482-7.996 8.575-20.717.28-28.818l-.28-.268C40.83 71.091 32.5 52.707 32.5 32.716V30a7.5 7.5 0 017.5-7.5zm120 0a7.5 7.5 0 00-7.5 7.5v2.716c0 15.548-6.385 29.844-18.37 41.362l-.488.465c-14.707 13.866-14.854 36.45-.441 50.491l.44.423c12.3 11.597 18.859 26.07 18.859 41.827V170a7.5 7.5 0 1015 0v-2.716c0-19.769-8.146-37.966-23.063-52.26l-.505-.481c-8.482-7.996-8.575-20.717-.28-28.818l.28-.268C159.17 71.091 167.5 52.707 167.5 32.716V30a7.5 7.5 0 00-7.5-7.5z"/></svg>