<svg xmlns="http://www.w3.org/2000/svg" width="200" height="200" viewBox="0 0 200 200"><path fill="#FFF" fill-rule="evenodd" d="M88.256.006h23.49l15.057.108c5.58.09 9.099.24 14.432.483 10.645.485 17.915 2.176 24.277 4.649 6.576 2.555 12.154 5.975 17.714 11.535 5.56 5.56 8.98 11.137 11.535 17.714 2.198 5.655 3.778 12.027 4.443 20.85l.206 3.427c.405 8.889.553 12.736.59 29.49l-.036 32.136c-.065 9.026-.204 13.042-.476 19.126l-.078 1.716c-.486 10.645-2.177 17.915-4.649 24.277-2.555 6.576-5.975 12.154-11.535 17.714-5.56 5.56-11.138 8.98-17.714 11.535-5.655 2.198-12.027 3.778-20.85 4.443l-3.427.206c-8.89.405-12.736.553-29.49.59l-32.136-.036c-9.026-.065-13.042-.204-19.127-.476l-1.715-.078c-10.645-.486-17.916-2.176-24.277-4.649-6.577-2.555-12.154-5.975-17.714-11.535-5.56-5.56-8.98-11.138-11.535-17.714-2.198-5.655-3.778-12.027-4.443-20.85l-.206-3.427C.186 132.35.039 128.504 0 111.75l.037-32.136c.064-9.026.204-13.042.476-19.126l.078-1.716c.485-10.645 2.176-17.916 4.649-24.277 2.555-6.577 5.975-12.154 11.535-17.714 5.56-5.56 11.137-8.98 17.714-11.535C40.145 3.048 46.517 1.468 55.34.803l3.427-.206C67.656.191 71.503.044 88.257.006zm34.959 18.08H76.787a411.37 411.37 0 00-9.088.181l-8.111.331c-9.751.445-15.047 2.074-18.57 3.444-4.669 1.814-8 3.981-11.5 7.481s-5.667 6.831-7.481 11.5l-.764 2.113c-1.16 3.483-2.316 8.479-2.68 16.457l-.33 8.11c-.155 4.805-.22 10.09-.243 20.77l.062 34.747c.032 3.087.078 5.52.14 7.762l.371 9.437c.445 9.75 2.074 15.046 3.444 18.57 1.814 4.669 3.982 8 7.481 11.5 3.5 3.5 6.831 5.667 11.5 7.481l2.113.764c3.483 1.159 8.479 2.316 16.457 2.68l8.11.33c4.804.154 10.089.22 20.769.243l34.75-.062a436.94 436.94 0 007.761-.14l9.436-.371c9.75-.445 15.046-2.074 18.57-3.444 4.669-1.814 8-3.981 11.5-7.481s5.667-6.831 7.481-11.5l.764-2.114c1.159-3.483 2.316-8.478 2.68-16.456l.438-12.249c.08-3.95.118-8.864.135-16.63l-.062-34.748a411.37 411.37 0 00-.18-9.088l-.331-8.111c-.445-9.751-2.074-15.046-3.444-18.57-1.814-4.669-3.981-8-7.481-11.5s-6.831-5.667-11.5-7.481l-2.114-.764c-3.483-1.16-8.478-2.316-16.456-2.68l-12.249-.438c-1.481-.03-3.098-.054-4.95-.073zM100.001 48.65c28.364 0 51.357 22.993 51.357 51.357S128.365 151.363 100 151.363s-51.357-22.993-51.357-51.357S71.637 48.65 100.001 48.65zm0 18.02c-18.412 0-33.337 14.925-33.337 33.337 0 18.411 14.925 33.337 33.337 33.337 18.411 0 33.337-14.926 33.337-33.337 0-18.412-14.926-33.337-33.337-33.337zm53.386-32.05c6.628 0 12.001 5.373 12.001 12.001 0 6.628-5.373 12.001-12.001 12.001-6.628 0-12.001-5.373-12.001-12.001 0-6.628 5.373-12.001 12-12.001z"/></svg>