<svg xmlns="http://www.w3.org/2000/svg" width="200" height="200" viewBox="0 0 200 200"><path fill="#FFF" fill-rule="evenodd" d="M144.333 14.064c22.69 1.725 27.413 28.643 14.26 43.954-8.557 9.96-27.438 18.034-56.644 24.221l.011.042c28.67-5.384 49.089-5.684 61.259-.9 18.785 7.383 28.787 29.127 4.85 45.952-1.724 22.69-28.643 27.413-43.953 14.26-5.48-4.707-10.387-12.538-14.725-23.493l2.913 14.24.442 2.178c2.774 13.67 4.978 34.02 6.61 61.047a4.183 4.183 0 01-4.175 4.435 4.282 4.282 0 01-4.282-4.282l.064-2.18c.731-25.386-.196-44.45-2.782-57.193l-3.898-19.105-.425-2.073c.817 13.356-.218 23.706-3.105 31.052-7.384 18.785-29.128 28.787-45.953 4.85-22.69-1.724-27.413-28.643-14.26-43.953 8.56-9.964 27.45-18.04 56.672-24.228l-.008-.042-1.746.324c-27.77 5.076-47.618 5.27-59.543.583C17.129 76.37 7.128 54.625 31.065 37.8c1.724-22.69 28.642-27.413 43.953-14.26 9.94 8.54 18 27.36 24.183 56.464l.05.003c-5.355-28.582-5.645-48.946-.87-61.092 7.383-18.786 29.127-28.787 45.952-4.85z"/></svg>