<svg xmlns="http://www.w3.org/2000/svg" width="200" height="200" viewBox="0 0 200 200"><path fill="#000" fill-rule="evenodd" d="M119.202 26.001c2.436 6.692 2.202 15.28-.702 25.766 6.166-8.964 12.594-14.664 19.287-17.1 20.5-7.461 43.166 3.109 50.627 23.608 7.462 20.5-3.108 43.167-23.608 50.628-7.16 2.606-16.493 2.156-27.996-1.351 10.081 6.557 16.425 13.416 19.031 20.577 7.461 20.5-3.108 43.166-23.608 50.627-20.5 7.462-43.166-3.108-50.628-23.608-1.63-4.482-2.065-9.814-1.301-15.996l-.663 1.394c-4.67 9.9-7.665 17.743-8.987 23.529-2.184 9.556-3.267 21.472-3.25 35.75h-11c.59-16.497 2.756-29.747 6.5-39.75 2.35-6.283 6.906-14.075 13.666-23.378-4.39 4.834-8.906 8.095-13.55 9.785-20.5 7.461-43.166-3.108-50.627-23.608C4.932 102.374 15.5 79.707 36 72.246c7.16-2.606 16.493-2.156 27.996 1.351-10.081-6.556-16.425-13.416-19.031-20.576-7.461-20.5 3.108-43.167 23.608-50.628C89.074-5.068 111.741 5.5 119.202 26z"/></svg>