<svg xmlns="http://www.w3.org/2000/svg" width="200" height="200" viewBox="0 0 200 200"><path fill="#000" fill-rule="evenodd" d="M193.978 44.278c-2.923-21.489-21.856-38.424-44.301-41.705C145.89 2.018 131.543 0 98.307 0h-.247C64.816 0 57.683 2.018 53.897 2.573c-21.82 3.19-41.746 18.407-46.58 40.15-2.326 10.709-2.574 22.58-2.142 33.47.615 15.617.735 31.207 2.169 46.76a217.763 217.763 0 005.174 30.67c4.596 18.635 23.199 34.143 41.425 40.47a112.261 112.261 0 0060.606 3.163 90.26 90.26 0 006.562-1.772c4.88-1.537 10.607-3.255 14.816-6.273a.472.472 0 00.193-.363v-15.072a.443.443 0 00-.352-.428.457.457 0 00-.2 0 169.718 169.718 0 01-39.328 4.546c-22.794 0-28.924-10.699-30.68-15.153a46.53 46.53 0 01-2.665-11.945.435.435 0 01.346-.449.444.444 0 01.205.004 166.501 166.501 0 0038.686 4.545c3.134 0 6.259 0 9.393-.082 13.106-.363 26.92-1.027 39.816-3.518.321-.063.643-.118.919-.2 20.34-3.863 39.696-15.99 41.663-46.696.073-1.209.257-12.662.257-13.917.01-4.263 1.388-30.243-.202-46.205zm-31.305 76.62h-21.387V69.086c0-10.908-4.596-16.471-13.943-16.471-10.276 0-15.423 6.581-15.423 19.58v28.361H90.661V72.194c0-12.999-5.156-19.58-15.432-19.58-9.292 0-13.934 5.563-13.943 16.471V120.9h-21.37V67.513c0-10.909 2.817-19.575 8.448-25.998 5.808-6.409 13.428-9.7 22.885-9.7 10.947 0 19.219 4.164 24.734 12.481l5.321 8.836 5.331-8.836c5.515-8.317 13.787-12.48 24.715-12.48 9.448 0 17.068 3.29 22.895 9.699 5.631 6.417 8.447 15.083 8.447 25.998l-.019 53.386z"/></svg>