<svg xmlns="http://www.w3.org/2000/svg" width="200" height="200" viewBox="0 0 200 200"><path fill="#000" fill-rule="evenodd" d="M101.5 6.5a4 4 0 014 4v12.609a40.457 40.457 0 0114.43 3.802l12.242-12.24a4 4 0 115.656 5.657l-10.85 10.852a40.906 40.906 0 0110.748 12.118l13.696-4.82a4 4 0 112.656 7.545L141.05 50.61a40.651 40.651 0 012.15 13.09c0 1.107-.044 2.212-.134 3.314l13.28-.511a4 4 0 11.308 7.994l-14.295.55-.167 2.052c-.321 4.05-.578 7.794-.77 11.231l12.822-.822a4 4 0 11.512 7.984l-13.68.877-.037 1.54c-.02 1.007-.033 1.974-.037 2.902l-.002.689c0 3.14.1 6.753.3 10.837l12.944-.829a4 4 0 01.512 7.984l-12.979.831.139 1.952c.289 3.957.646 8.237 1.071 12.839l13.03-1.585a4 4 0 01.966 7.942l-13.96 1.698a40.436 40.436 0 01-3.658 13.395l11.275 3.352a4 4 0 11-2.28 7.668l-13.244-3.937a40.818 40.818 0 01-12.393 10.985l5.102 16.7a4 4 0 11-7.65 2.337l-4.811-15.746A40.824 40.824 0 01102.5 180v14.5a4 4 0 11-8 0v-14.538a45.881 45.881 0 01-12.027-2.106l-6.326 14.038a4 4 0 01-7.294-3.288l6.232-13.826a46.123 46.123 0 01-8.911-6.086l-10.971 12.004a4 4 0 11-5.906-5.396l11.31-12.378a45.919 45.919 0 01-5.585-8.766l-13.563 5.316a4 4 0 11-2.918-7.448l13.617-5.337a46.19 46.19 0 01-1.52-7.817 404.398 404.398 0 01-.39-3.826l-13.765 1.675a4 4 0 01-.966-7.942l14.04-1.708c-.265-3.474-.48-6.918-.646-10.333l-15.655 1.004a4 4 0 01-.512-7.984l15.87-1.018a338.69 338.69 0 01-.098-11.976l-15.26.978a4 4 0 01-.512-7.984l15.946-1.022c.14-4.173.359-8.364.654-12.573l-16.802-1.94a4 4 0 11.916-7.947l16.538 1.91c.122-1.314.252-2.63.389-3.946.23-2.22.617-4.39 1.147-6.498l-16.766-5.437a4 4 0 012.468-7.61l16.92 5.487a45.896 45.896 0 016.198-10.09L45.97 28.349a4 4 0 015.06-6.196l14.892 12.163a46.11 46.11 0 019.67-6.478l-8.36-15.432a4 4 0 017.035-3.81L83.09 24.88A45.978 45.978 0 0196.138 23H97.5V10.5a4 4 0 014-4z"/></svg>