<svg xmlns="http://www.w3.org/2000/svg" width="200" height="200" viewBox="0 0 200 200"><path fill="#000" fill-rule="evenodd" d="M164 16c14.912 0 27 12.088 27 27s-12.088 27-27 27a26.885 26.885 0 01-16.753-5.824l-10.213 10.31C143.831 81.656 148 91.34 148 102c0 9.78-3.51 18.74-9.339 25.69l20.415 20.252A19.91 19.91 0 01171 144c11.046 0 20 8.954 20 20s-8.954 20-20 20-20-8.954-20-20a19.91 19.91 0 013.848-11.798l-20.375-20.215A39.849 39.849 0 01108 142c-10.523 0-20.097-4.063-27.238-10.707l-9.286 9.376A14.93 14.93 0 0174 149c0 8.284-6.716 15-15 15-8.284 0-15-6.716-15-15 0-8.284 6.716-15 15-15 3.032 0 5.853.9 8.213 2.446l9.47-9.56a39.824 39.824 0 01-8.679-24.299L68 102c0-.167.001-.333.003-.5H48.695C47.039 110.878 38.85 118 29 118c-11.046 0-20-8.954-20-20s8.954-20 20-20c10.2 0 18.615 7.634 19.845 17.5h19.68a39.85 39.85 0 019.28-19.735L52.322 50.482A14.93 14.93 0 0144 53c-8.284 0-15-6.716-15-15 0-8.284 6.716-15 15-15 8.284 0 15 6.716 15 15a14.93 14.93 0 01-2.452 8.223l25.521 25.32A39.842 39.842 0 01108 62a39.828 39.828 0 0124.589 8.448l10.395-10.496A26.887 26.887 0 01137 43c0-14.912 12.088-27 27-27z"/></svg>