<svg xmlns="http://www.w3.org/2000/svg" width="200" height="200" viewBox="0 0 200 200"><path fill="#FFF" fill-rule="evenodd" d="M32.5 100C16.76 100 4 112.76 4 128.5S16.76 157 32.5 157 61 144.24 61 128.5 48.24 100 32.5 100zm137 0c-15.74 0-28.5 12.76-28.5 28.5s12.76 28.5 28.5 28.5 28.5-12.76 28.5-28.5-12.76-28.5-28.5-28.5zM48.25 49.75L33.556 65.437a28 28 0 00-5.768 9.273L22.5 89c18.457 4.157 28 3.5 38.25 14S73.543 125.343 77 143h45c6.627 0 12-5.373 12-12V94.989L179.5 72.5 175 66h-27c0 4.667-5 7.333-15 8h-20.594C108.743 65 100.275 60.5 87 60.5l-33.753 9.754L56.25 53.5l-8-3.75z"/></svg>