<svg xmlns="http://www.w3.org/2000/svg" width="200" height="200" viewBox="0 0 200 200"><path fill="#000" fill-rule="evenodd" d="M101.5 140c42.802 0 77.5-4.915 77.5-51.627 0-19.741-17.645-22.132-28.032-36.523-14.19-19.662-14.29-42.29-49.468-48.057C66.323-1.974 67.054 24.95 52.856 44.435 42.336 58.875 24 68.492 24 88.373 24 135.085 58.698 140 101.5 140zm-19.136 7h35.727v9.03c0 5.72 1.673 12.12 5.018 19.198l.318.666c3.493 7.21.48 15.885-6.73 19.378a14.505 14.505 0 01-8.697 1.255c-15.102-2.504-26.03-15.736-25.682-30.994l.014-.463c.021-.554.032-1.105.032-1.652V147z"/></svg>