<svg xmlns="http://www.w3.org/2000/svg" width="200" height="200" viewBox="0 0 200 200"><path fill="#FFF" fill-rule="evenodd" d="M135 116c8.284 0 15 6.716 15 15v21.5c0 20.158-16.342 36.5-36.5 36.5h-27C66.342 189 50 172.658 50 152.5V131c0-8.284 6.716-15 15-15h70zM105 5c38.108 0 89 40.892 89 79v17c0 18.739-13.93 38.428-32 41.567V127c0-13.255-10.745-24-24-24H62c-13.255 0-24 10.745-24 24v15.568C19.93 139.428 6 119.738 6 101V84C6 45.892 56.892 5 95 5h10zM22.22 67.53c-9.68 3.715-15.04 13.206-11.973 21.198 3.068 7.992 13.402 11.458 23.082 7.742 9.68-3.715 15.041-13.206 11.973-21.198C42.235 67.28 31.9 63.814 22.22 67.53zm128.027 7.742c-3.068 7.992 2.293 17.483 11.973 21.198 9.68 3.716 20.015.25 23.082-7.742 3.068-7.992-2.292-17.483-11.973-21.198-9.68-3.716-20.014-.25-23.082 7.742zM98.845 18.5C77.773 18.5 60.69 32.603 60.69 50s17.083 31.5 38.155 31.5C119.917 81.5 137 67.397 137 50s-17.083-31.5-38.155-31.5z"/></svg>