<svg xmlns="http://www.w3.org/2000/svg" width="200" height="200" viewBox="0 0 200 200"><path fill="#000" fill-rule="evenodd" d="M199.648 143.398c0 17.258-16.789 31.25-37.148 31.25-20.36 0-37.148-13.992-37.148-30.898 0-17.258 16.789-30.898 37.148-30.898 4.406 0 8.574.75 12.504 1.913V57.852L75 87.5v81.29C74.647 186.015 58.202 200 37.147 200 16.094 200 0 186.016 0 168.75c0-17.258 16.79-30.898 37.148-30.898 4.407 0 8.575.75 12.5 1.913v-90.35c0-5.067 3.93-10.403 8.754-11.923L183.051.582C184.414.258 186.445 0 187.5 0c6.898 0 12.488 5.602 12.5 12.496l-.352 130.902z"/></svg>