<svg xmlns="http://www.w3.org/2000/svg" width="200" height="200" viewBox="0 0 200 200"><path fill="#000" fill-rule="evenodd" d="M129.242 84.975L110 74v81.29c-.352 17.226-16.797 31.21-37.852 31.21C51.094 186.5 35 172.516 35 155.25c0-17.258 16.79-30.898 37.148-30.898 4.407 0 8.575.75 12.5 1.913v-90.35c0-11.133 9.025-20.158 20.157-20.158 3.869 0 7.655 1.113 10.908 3.206l37.57 24.176c6.93 4.459 9.34 13.451 5.567 20.778L151.395 78.4c-4.045 7.857-13.693 10.947-21.55 6.902a16 16 0 01-.603-.327z"/></svg>