<svg xmlns="http://www.w3.org/2000/svg" width="200" height="200" viewBox="0 0 200 200"><path fill="#FFF" fill-rule="evenodd" d="M45.86 137.733c12.152 0 25.145 13.182 25.145 25.51 0 12.327-9.85 22.32-22.001 22.32H5l.66-.573.69-.62c3.66-3.332 13.548-13.022 14.366-21.127 1.742-17.273 12.993-25.51 25.145-25.51zM193.65 13.415l-49.043 91.087c-5.235 9.724-17.469 21.657-27.316 26.649L79 149.5c-3.667-4.667-7.167-8.417-10.5-11.25s-7.867-5.109-13.6-6.827L73.22 86.335c4.241-10.194 15.57-22.707 25.285-27.938l91.08-49.047c4.863-2.62 6.683-.8 4.064 4.065z"/></svg>