<svg xmlns="http://www.w3.org/2000/svg" width="200" height="200" viewBox="0 0 200 200"><path fill="#FFF" fill-rule="evenodd" d="M100 10c49.706 0 90 40.294 90 90 0 51.429-38.571 0-64.286 25.714C100 151.43 151.43 190 100 190c-49.706 0-90-40.294-90-90s40.294-90 90-90zM67.857 125.714c-10.651 0-19.286 8.635-19.286 19.286 0 10.651 8.635 19.286 19.286 19.286 10.651 0 19.286-8.635 19.286-19.286 0-10.651-8.635-19.286-19.286-19.286zM55 74.286c-10.651 0-19.286 8.634-19.286 19.285 0 10.652 8.635 19.286 19.286 19.286 10.651 0 19.286-8.634 19.286-19.286 0-10.65-8.635-19.285-19.286-19.285zm90-12.857c-10.651 0-19.286 8.634-19.286 19.285S134.35 100 145 100c10.651 0 19.286-8.635 19.286-19.286 0-10.65-8.635-19.285-19.286-19.285zM93.571 35.714c-10.65 0-19.285 8.635-19.285 19.286 0 10.651 8.634 19.286 19.285 19.286 10.652 0 19.286-8.635 19.286-19.286 0-10.651-8.634-19.286-19.286-19.286z"/></svg>