<svg xmlns="http://www.w3.org/2000/svg" width="200" height="200" viewBox="0 0 200 200"><path fill="#000" fill-rule="evenodd" d="M71.2.116c13.423-.662 28.581 1.56 41.865 5.545l2.804.842 8.98 2.723 2.796.869c24.453 7.668 38.259 13.85 49.437 23.394l.824.714C192.691 47.195 200 65.284 200 91.204c0 26.471-9.08 51.189-27.645 66.406-12.677 10.39-31.454 22.167-48.878 30.488l-1.065.505c-21.13 9.951-37.983 13.966-47.83 9.715C44.16 185.184 3.262 129.076.107 96.215-1.52 79.247 15.704 38.93 32.137 17.252 40.38 6.374 54.011.963 71.2.116zm39.5 13.77c-29.653-8.897-59.781-7.412-71.928 8.613C23.528 42.61 7.088 81.09 8.459 95.38c2.853 29.715 41.785 83.126 69.39 95.044 13.901 6.001 60.537-15.962 89.253-39.498 16.335-13.389 24.506-35.634 24.506-59.72 0-23.534-6.34-39.226-19.175-50.504-10.337-9.084-23.619-15.047-48.225-22.716l-2.713-.839-10.795-3.26zm-32.147 6.198c10.684-.521 22.726 1.226 33.284 4.362 44.037 13.08 66.337 32.644 69.167 67.31 1.527 18.712-9.213 43.445-25.15 56.377-21.118 17.135-58.216 32.212-74.194 28.68-22.03-4.87-57.381-53.754-59.994-80.696C20.353 82.57 34.021 50.9 47.11 33.805c6.688-8.734 17.666-13.048 31.444-13.72zm30.94 12.593c-23.063-6.85-46.497-5.707-55.773 6.409-11.883 15.519-24.754 45.342-23.702 56.187 2.279 23.509 35.288 69.154 53.418 73.162 12.956 2.864 47.856-11.319 67.198-27.013 13.763-11.168 23.298-33.128 22.007-48.955-2.482-30.398-22.08-47.592-63.148-59.79zM68.541 46.71c8.734-4.774 17.318-6.802 26.078-6.587 6.193.152 11.663 1.26 19.028 3.512l1.669.52 5.323 1.7.713.22 1.863.557c28.79 8.641 38.73 19.552 40.912 46.08 1.137 13.815-6.788 31.922-18.598 41.43-15.483 12.464-42.554 23.38-54.494 20.76-17.11-3.752-44.422-35.495-46.269-54.394-.55-5.632 2.06-17.047 6.242-27.877 4.913-12.724 10.95-22.322 17.533-25.92zm43.577 5.409c-15.879-4.933-26.395-5.08-39.617 2.149-4.292 2.346-9.459 10.561-13.686 21.508l-.206.537c-3.61 9.501-5.87 19.484-5.492 23.344 1.487 15.222 26.163 43.9 39.68 46.865 8.94 1.96 33.824-8.072 47.537-19.112 9.622-7.746 16.328-23.069 15.43-33.98l-.12-1.362c-2.036-21.492-9.515-29.528-34.076-36.995l-2.61-.783c-.485-.148-1-.309-1.576-.49l-5.264-1.681zm-14.322 9.697c31.505 0 46.63 11.532 48.381 32.661.463 5.578-2.526 14.74-7.58 21.92-6.668 9.47-16.264 15.217-28.213 15.217-12.468 0-23.148-3.988-31.15-10.916-6.914-5.987-11.353-13.897-12.053-21.002-.496-5.044 1.302-14.115 4.91-21.214 5.25-10.334 13.85-16.666 25.705-16.666zm0 8.571c-8.437 0-14.35 4.354-18.257 12.044-2.87 5.646-4.338 13.053-4.008 16.407.47 4.775 3.798 10.705 9.13 15.322 6.483 5.612 15.24 8.882 25.723 8.882 9.054 0 16.218-4.29 21.4-11.65 3.961-5.627 6.31-12.828 6.031-16.192-1.349-16.27-12.552-24.813-40.02-24.813z"/></svg>