<svg xmlns="http://www.w3.org/2000/svg" width="200" height="200" viewBox="0 0 200 200"><path fill="#FFF" fill-rule="evenodd" d="M146.005 4.322c-7.706-6.434-17.174-5.26-22.195.722l-.655.799-.675.864c-5.7 7.468-12.9 21.282-4.197 28.475l.884.72.89.702c8.931 6.922 18.801 10.647 30.866-3.724 9.656-11.501 8.425-17.003-.216-24.646l-4.702-3.912zm-3.44 15.432c.241 2.75-2.724 6.89-4.076 7.285l-.437.148c-1.542.559-4.539 1.753-7.807-2.476-3.613-4.674-2.089-8.654-.114-10.798 1.975-2.144 6.968-1.806 9.108-.009 2.14 1.797 3.086 3.1 3.326 5.85zM169.59 55.16l-3.733-3.103c-6.117-5.104-11.453-5.907-20.554-1.143-12.242 6.408-13.44 23.674-5.976 29.832l1.011.82 1.03.802c7.218 5.494 16.523 9.633 26.97-2.811 8.599-10.242 8.09-18.309 1.252-24.397zm-8.86 11.548c.127 2.251-2.288 5.677-3.49 6.252l-.987.376c-1.4.515-3.677 1.027-6.025-2.096-2.924-3.886-1.539-7.312.179-9.187 1.718-1.875 5.913-1.714 7.67-.239 1.756 1.475 2.52 2.56 2.652 4.894zm17.241 28.1c-6.117-5.104-19.918 3.682-23.433 7.869-2.01 2.393-4.775 21.479.033 25.51l.687.562.554.431c5.513 4.202 17.188 10.423 27.77-2.182 8.598-10.241 8.09-18.308 1.252-24.396l-6.863-7.794zm-1.998 19.342c.132 2.334-2.47 5.932-3.618 6.303l-.331.121c-1.3.508-3.88 1.661-6.553-1.892-2.923-3.886-1.538-7.312.18-9.187 1.717-1.875 5.913-1.714 7.67-.24 1.756 1.475 2.519 2.56 2.652 4.895zm-62.95-40.97c9.428-3.453 13.145-12.235 10.473-19.572-3.073-8.439-12.73-18.807-24.16-14.555C87.908 43.305 81.29 51.44 84.55 63.348c3.967 14.488 11.79 15.604 22.733 11.946l5.74-2.114zm-11.651-10.693c-2.504-1.167-4.608-5.803-4.274-7.17l.07-.338c.287-1.572.64-4.903 6.069-5.635 5.856-.79 8.542 2.52 9.413 5.3.87 2.782-1.92 6.935-4.546 7.889-2.627.953-4.229 1.12-6.732-.046zm37.083 29.76l-3.733-3.104c-6.117-5.104-11.453-5.907-20.554-1.143-12.104 6.336-12.43 22.119-5.22 28.425l1.73 1.427c7.178 5.83 15.812 11.552 26.525-1.209 8.598-10.241 8.09-18.308 1.252-24.396zm-8.861 11.548c.133 2.334-2.47 5.932-3.618 6.303l-.331.121-.527.204c-1.4.514-3.677 1.026-6.026-2.096-2.923-3.886-1.538-7.312.18-9.187 1.717-1.875 5.913-1.714 7.67-.24 1.756 1.475 2.519 2.56 2.652 4.895zm-6.192 35.968c-2.009 2.393-2.986 16.353.574 22.397l.238.387.252.377c4.176 6.028 16.993 14.249 27.98 1.16l.99-1.192.645-.795c7.256-9.037 8.916-14.61-.383-22.409-9.961-8.354-26.78-4.112-30.296.075zm25.409 13.1c.456 2.884-2.41 6.984-3.825 7.298l-1.121.312c-1.724.45-4.525.733-7.85-3.335-4.197-5.133-2.858-9.17-.904-11.262 1.953-2.092 7.309-1.378 9.724.65 2.415 2.027 3.52 3.454 3.976 6.338zM68.683 33.254c-7.706-6.433-17.173-5.26-22.195.722l-.683.827-.46.576c-5.556 7.021-11.688 18.015-2.899 25.278l3.643 3.017c8.13 6.608 16.314 11.478 27.513-1.862 9.655-11.5 8.424-17.002-.217-24.645l-4.702-3.913zm-3.44 15.433c.233 2.658-2.53 6.614-3.935 7.232l-1.26.44c-1.653.54-4.286.957-7.125-2.715-3.612-4.674-2.088-8.654-.113-10.798s6.967-1.806 9.107-.01c2.14 1.797 3.086 3.1 3.327 5.85zM85.95 76.78c-6.117-5.103-11.453-5.907-20.554-1.143-12.242 6.408-13.44 23.675-5.976 29.833l.5.406c7.528 6.01 20.036 11.536 31.245-1.814 8.598-10.242.902-22.177-5.215-27.282zm-5.128 14.652c.133 2.334-2.47 5.932-3.618 6.303l-.33.121-.528.204c-1.4.514-3.677 1.026-6.025-2.096-2.924-3.886-1.539-7.312.179-9.187 1.718-1.875 5.913-1.714 7.67-.24 1.756 1.475 2.52 2.56 2.652 4.895zm19.829 32.308c-6.117-5.105-19.919 3.681-23.434 7.868-2.009 2.393-4.774 21.48.033 25.511l.688.561.364.286c5.431 4.2 17.254 10.715 27.96-2.036 8.598-10.242 8.09-18.309 1.25-24.397l-6.861-7.793zM98.65 143.08c.133 2.335-2.47 5.933-3.618 6.304l-.33.12-.528.204c-1.4.514-3.677 1.027-6.025-2.096-2.924-3.886-1.539-7.312.179-9.187 1.718-1.875 5.913-1.714 7.67-.24 1.756 1.476 2.52 2.56 2.652 4.895zM37.903 101.92c9.428-3.453 13.144-12.235 10.472-19.573-3.072-8.438-12.729-18.806-24.159-14.554-11.43 4.252-17.008 12.784-12.837 24.402 3.667 10.21 17.097 13.179 26.524 9.725zM26.251 91.226c-2.503-1.167-4.607-5.803-4.274-7.17l.07-.338.102-.566c.322-1.696 1.126-4.416 5.967-5.07 5.857-.789 8.543 2.52 9.413 5.302.87 2.781-1.919 6.934-4.546 7.888-2.626.953-4.228 1.12-6.732-.046zm7.61 23.389c-12.242 6.408-9.45 24.795-1.986 30.953 7.465 6.157 19.809 7.949 28.006.007 9.321-9.03 5.481-14.499 1.604-23.563l-.352-.834c-7.825-18.794-18.171-11.327-27.273-6.563zm17.862 13.907c-.005 2.497-2.963 6.52-4.193 6.988l-1.035.448c-1.51.623-3.873 1.203-6.095-1.926-2.835-3.991-1.168-7.754.754-9.872 1.922-2.118 6.324-2.204 8.08-.729 1.757 1.476 2.493 2.593 2.489 5.09zm-5.642 40.173c-2.01 2.392-2.987 16.352.574 22.397l.238.386.252.378c4.176 6.027 16.992 14.248 27.98 1.16l.99-1.192.645-.795c7.255-9.038 8.915-14.611-.383-22.41-9.962-8.353-26.781-4.111-30.296.076zm25.408 13.1c.457 2.884-2.41 6.983-3.824 7.297l-.433.116-.54.156c-1.708.47-4.576.894-8-3.294-4.195-5.133-2.856-9.171-.903-11.263 1.954-2.091 7.31-1.378 9.724.65 2.415 2.028 3.52 3.454 3.976 6.338z"/></svg>