<svg xmlns="http://www.w3.org/2000/svg" width="200" height="200" viewBox="0 0 200 200"><path fill="#FFF" fill-rule="evenodd" d="M200 3c-26.535 53.616-51.98 92.147-76.335 115.593-24.354 23.445-64.248 49.617-119.682 78.516l3.725-5.438c39.776-57.947 67.614-94.575 83.515-109.883C107.616 66.008 143.875 39.745 200 3zm-18.63 152.904l-1.93 1.184c-27.84 17.019-49.96 27.56-66.359 31.62-16.776 4.156-39.48 5.166-68.115 3.03l2.106-1.187c24.793-13.908 45.144-22.718 61.054-26.43l1.196-.274c16.342-3.674 40.358-6.322 72.047-7.943zM66.844 10.2l-.265 2.34C62.817 45.12 56.816 69.823 48.577 86.65 40.14 103.877 23.949 125.574 0 151.74l.471-2.22c7.225-33.843 14.485-58.146 21.778-72.91l.475-.952C30.324 60.598 45.03 38.78 66.845 10.2z"/></svg>