<svg xmlns="http://www.w3.org/2000/svg" width="200" height="200" viewBox="0 0 200 200"><path fill="#000" fill-rule="evenodd" d="M100.332 85c32.543 0 78.324 55.164 78.668 89.956C179 190.62 167.672 200 149.597 200c-19.796 0-33.075-11.275-49.265-11.275-16.025 0-29.264 11.275-49.265 11.275-18.275 0-29.2-9.202-29.067-24.598l.009-.468C22.009 140.119 67.802 85 100.332 85zm-53.69-5.132c4.322 14.048-2.009 27.772-14.226 30.614C20.2 113.324 6.72 104.189 2.37 90.1-1.982 76.05 4.38 62.36 16.596 59.518c12.217-2.842 25.696 6.294 30.047 20.35zM184.45 59.419c11.844 2.854 18.563 16.593 14.225 30.728-4.41 14.115-17.849 22.92-30.078 20.434-12.23-2.854-18.58-16.61-14.224-30.728 4.355-14.115 17.848-22.92 30.077-20.434zm-71.88-30.688c4.65-18.432 18.562-30.598 30.352-27.145 12.094 3.451 18.163 21.25 13.514 39.683-4.65 18.432-18.563 30.598-30.352 27.145-12.104-3.442-18.175-21.25-13.514-39.683zM58.08 1.5c12.14-3.077 25.706 8.34 30.356 27.177 4.65 18.837-1.422 36.272-13.515 39.729-12.145 3.489-25.699-8.723-30.357-27.177-4.65-18.837 1.422-36.272 13.515-39.73z"/></svg>