<svg xmlns="http://www.w3.org/2000/svg" width="200" height="200" viewBox="0 0 200 200"><path fill="#000" fill-rule="evenodd" d="M104.306 4l6.261.769-.56 1.27c-2.733 6.266-4.48 11.24-5.24 14.92-.738 3.567-1.149 8.828-1.233 15.782 18.762 2.916 33.839 29.126 36.187 53.483 2.044 21.213 24.279 27.5 24.279 54.792 0 34.978-29.074 51.458-63.915 51.458-34.84 0-63.085-21.689-63.085-56.667 0-32.083 25.761-35.185 28.845-56.041l.193-1.272c3.168-20.273 9.906-36.866 22.173-43.227-4.112.044-7.665-1.022-10.66-3.197-5.26-3.823-7.799-10.345-7.615-19.568 8.715-3.025 15.702-2.627 20.963 1.196 3.3 2.397 5.529 5.857 6.686 10.378.242-3.88.612-7.024 1.11-9.435.874-4.23 2.745-9.11 5.611-14.641z"/></svg>