<svg xmlns="http://www.w3.org/2000/svg" width="200" height="200" viewBox="0 0 200 200"><path fill="#000" fill-rule="evenodd" d="M157.5 109.21c3.046 7.501 10.405 9.79 19 9.79 2.453 0 4.805-.43 6.985-1.22L168.663 163H32.337l-14.82-45.22c2.18.79 4.53 1.22 6.983 1.22 8.595 0 15.954-2.289 19-9.79 3.046 7.501 10.405 9.79 19 9.79s15.954-2.289 19-9.79c3.046 7.501 10.405 9.79 19 9.79s15.954-2.289 19-9.79c3.046 7.501 10.405 9.79 19 9.79s15.954-2.289 19-9.79zM117.846 37c23.307 0 44.401 13.037 54.975 33.33A20.524 20.524 0 01176.5 70c11.322 0 20.5 9.178 20.5 20.5s-9.178 20.5-20.5 20.5c-8.595 0-15.954-5.289-19-12.79-3.046 7.501-10.405 12.79-19 12.79s-15.954-5.289-19-12.79c-3.046 7.501-10.405 12.79-19 12.79s-15.954-5.289-19-12.79c-3.046 7.501-10.405 12.79-19 12.79s-15.954-5.289-19-12.79c-3.046 7.501-10.405 12.79-19 12.79C13.178 111 4 101.822 4 90.5S13.178 70 24.5 70c1.256 0 2.485.113 3.68.33C38.751 50.036 59.845 37 83.152 37h34.694zM74 52c-3.866 0-11 13.134-11 17a7 7 0 0013.996.24l.01-.954c.02-1.14.07-2.732.076-4.478l-.002-1.18C77.036 57.648 76.535 52 74 52zm52 0c-2.631 0-3.07 6.083-3.083 11.188v.62l.012 1.18c.017 1.276.05 2.42.064 3.298L123 69a7 7 0 0014 0c0-3.866-7.134-17-11-17zm-26-1c-3.866 0-7 13.134-7 17a7 7 0 0014 0c0-3.866-3.134-17-7-17z"/></svg>