<svg xmlns="http://www.w3.org/2000/svg" width="200" height="200" viewBox="0 0 200 200"><path fill="#FFF" fill-rule="evenodd" d="M179 5c8.837 0 16 7.163 16 16v158c0 8.837-7.163 16-16 16H21c-8.837 0-16-7.163-16-16V21c0-8.837 7.163-16 16-16h158zM23 172a5 5 0 100 10 5 5 0 000-10zm154 0a5 5 0 100 10 5 5 0 000-10zm-78.457-38C88.978 134 83 139.528 83 148.543 83 157.473 88.978 163 98.543 163c9.564 0 15.457-5.528 15.457-14.457 0-9.015-5.893-14.543-15.457-14.543zm2.42-96C75.088 38 60.422 52.405 60 73.258h22.842c.506-9.212 6.911-15.158 16.604-15.158 9.61 0 16.015 5.527 16.015 13.316 0 7.788-3.287 11.808-14.16 18.257-11.632 6.784-16.268 14.321-15.172 27.72l.169 4.607h22.336v-4.439c0-8.04 3.118-12.143 14.329-18.592C134.847 92.018 141 83.224 141 70.662 141 51.316 125.07 38 100.964 38zM23 18a5 5 0 100 10 5 5 0 000-10zm154 0a5 5 0 100 10 5 5 0 000-10z"/></svg>