<svg xmlns="http://www.w3.org/2000/svg" width="200" height="200" viewBox="0 0 200 200"><path fill="#FFF" fill-rule="evenodd" d="M174.565 3.009c3.3 3.3 3.366 8.61.198 11.99l-.198.204-29.032 29.03 7.467.001c11.598 0 21 9.402 21 21v32.808h6c11.046 0 20 8.955 20 20 0 11.046-8.954 20-20 20h-6v41.192c0 11.598-9.402 21-21 21H48c-11.598 0-21-9.402-21-21v-41.192h-7c-11.046 0-20-8.954-20-20 0-11.045 8.954-20 20-20h7V65.234c0-11.598 9.402-21 21-21h9.47L28.44 15.203A8.622 8.622 0 0140.634 3.009l41.224 41.225h39.287l41.226-41.225a8.622 8.622 0 0112.194 0zM67 139.484H56a9 9 0 00-8.996 8.734l-.004.266v12a9 9 0 008.735 8.996l.265.004h11v-30zm28 0H77v30h18v-30zm28 0h-18v30h18v-30zm21 0h-11v30h11a9 9 0 008.996-8.735l.004-.265v-12a9 9 0 00-8.735-8.997l-.265-.003zM63.367 74.809c-8.51 0-15.408 6.904-15.408 15.42 0 8.518 6.899 15.422 15.408 15.422 8.51 0 15.409-6.904 15.409-15.421s-6.899-15.421-15.409-15.421zm73.266 0c-8.51 0-15.409 6.904-15.409 15.42 0 8.518 6.899 15.422 15.409 15.422 8.51 0 15.408-6.904 15.408-15.421s-6.899-15.421-15.408-15.421z"/></svg>