<svg xmlns="http://www.w3.org/2000/svg" width="200" height="200" viewBox="0 0 200 200"><path fill="#FFF" fill-rule="evenodd" d="M57 13.717V58c0 6.627 5.373 12 12 12h62c6.627 0 12-5.373 12-12l.002-44.283C164.67 27.805 179 52.23 179 80v36h7c7.732 0 14 6.268 14 14s-6.268 14-14 14h-7v46c0 5.523-4.477 10-10 10H31c-5.523 0-10-4.477-10-10v-46h-7c-7.732 0-14-6.268-14-14s6.268-14 14-14h7V80c0-27.772 14.33-52.196 36-66.283zM116.5 163h-33a7.5 7.5 0 00-.243 14.996l.243.004h33a7.5 7.5 0 00.243-14.996L116.5 163zm-47.54-53.191c-13.808 0-25 11.192-25 25 0 13.807 11.192 25 25 25 13.806 0 25-11.193 25-25 0-13.808-11.194-25-25-25zm63.264 0c-13.807 0-25 11.192-25 25 0 13.807 11.193 25 25 25 13.808 0 25-11.193 25-25 0-13.808-11.192-25-25-25zM100 1c13.37 0 25.963 3.321 37.001 9.183L137 58a6 6 0 01-6 6H69a6 6 0 01-6-6V10.183C74.038 4.32 86.63 1 100 1z"/></svg>