<svg xmlns="http://www.w3.org/2000/svg" width="200" height="200" viewBox="0 0 200 200"><path fill="#000" fill-rule="evenodd" d="M127 9c36.45 0 66 29.55 66 66v45.72c0 13.806-11.193 25-25 25l-8.925-.001v17.647c-.002 13.751-10.712 25.123-24.438 25.949l-11.25.654c-12.264.687-20.254 1.031-23.972 1.031l-1.22-.01c-5.381-.08-16.714-.638-34.001-1.675-13.727-.826-24.437-12.198-24.44-25.95V145.72H32c-13.807 0-25-11.193-25-25V75C7 38.55 36.55 9 73 9h54zM99.417 121.754c-6.221-1.331-12.61 6.025-19.164 22.069-.01-.002-.012 0-.013.003-2.76 4.784-1.118 10.9 3.671 13.65l2.937 1.694c4.228 2.43 9.49 1.434 12.568-2.124 3.08 3.558 8.342 4.553 12.57 2.124l2.937-1.693.013.003c4.782-2.764 6.417-8.88 3.646-13.657-6.555-13.382-12.943-20.738-19.165-22.07zm-56.93-38.05c-11.191 6.454-15.025 20.747-8.564 31.925 6.46 11.178 20.77 15.008 31.96 8.555 11.19-6.454 20.09-23.669 13.628-34.847-6.46-11.178-25.835-12.087-37.025-5.633zm114.13-1.168c-11.179-6.454-32.869-9.051-39.323 2.127-6.453 11.178 4.774 33.067 15.952 39.52 11.178 6.454 23.134 2.624 29.588-8.554 6.453-11.178 4.96-26.64-6.218-33.093z"/></svg>