<svg xmlns="http://www.w3.org/2000/svg" width="200" height="200" viewBox="0 0 200 200"><path fill="#000" fill-rule="evenodd" d="M95.407 174.499l-9.71 22.48a5.003 5.003 0 01-9.596-1.909l-.367-24.484a5.003 5.003 0 00-8.487-3.516l-17.573 17.054a5.003 5.003 0 01-8.135-5.436l9.03-22.762a5.003 5.003 0 00-6.495-6.496l-22.762 9.031a5.003 5.003 0 01-5.436-8.135l17.054-17.573a5.003 5.003 0 00-3.516-8.487l-24.484-.367A5.006 5.006 0 010 118.82a5.008 5.008 0 013.02-4.519l22.481-9.709a5.003 5.003 0 000-9.186l-22.48-9.71a5.003 5.003 0 011.909-9.596l24.484-.367a5.003 5.003 0 003.516-8.487L15.876 49.674a5.003 5.003 0 015.436-8.135l22.762 9.03a5.003 5.003 0 006.496-6.495l-9.031-22.762a5.003 5.003 0 018.135-5.436L67.247 32.93a5.003 5.003 0 008.487-3.516l.367-24.484A5.006 5.006 0 0181.18 0a5.008 5.008 0 014.519 3.02l9.709 22.481a5.003 5.003 0 009.186 0l9.71-22.48a5.003 5.003 0 019.596 1.909l.367 24.484a5.003 5.003 0 008.487 3.516l17.573-17.054a5.003 5.003 0 018.135 5.436l-9.03 22.762a5.003 5.003 0 006.495 6.496l22.762-9.031a5.003 5.003 0 015.436 8.135L167.07 67.247a5.003 5.003 0 003.516 8.487l24.484.367A5.006 5.006 0 01200 81.18a5.008 5.008 0 01-3.02 4.519l-22.481 9.709a5.003 5.003 0 000 9.186l22.48 9.71a5.003 5.003 0 01-1.909 9.596l-24.484.367a5.003 5.003 0 00-3.516 8.487l17.054 17.573a5.003 5.003 0 01-5.436 8.135l-22.762-9.03a5.003 5.003 0 00-6.496 6.495l9.031 22.762a5.003 5.003 0 01-8.135 5.436l-17.573-17.054a5.003 5.003 0 00-8.487 3.516l-.367 24.484a5.006 5.006 0 01-5.078 4.93 5.008 5.008 0 01-4.519-3.02l-9.709-22.481a5.003 5.003 0 00-9.186 0z"/></svg>