<svg xmlns="http://www.w3.org/2000/svg" width="200" height="200" viewBox="0 0 200 200"><path fill="#000" fill-rule="evenodd" d="M99.117 165.12c23.672 10.397 12.156 41.01 36.788 33.79 24.632-7.22-7.997-34.367-5.758-43.898 2.24-9.53 46.384-9.53 39.027-31.767-7.358-22.238-39.987 7.22-42.546-8.375-2.56-15.595 60.14-19.639 38.387-46.208-21.753-26.57-26.231 26.57-42.226 15.306-15.994-11.263 48.624-43.32 16.315-57.76-32.31-14.439-18.874 24.26-38.387 18.773-9.842-2.768-6.3-18.971-11.836-30.613-5.442-11.44-35.828-23.104-39.667-4.91C41.63 45.4 86.64 33.429 77.044 49.89c-9.596 16.462-9.596-6.353-35.508 0-12.527 3.072-20.793 16.75 7.678 25.126 28.47 8.375 32.31 0 32.31 14.15 0 17.04-42.227-10.396-39.988 17.04 2.24 27.435 49.904 5.487 49.904 21.948 0 16.462-42.226-10.685-42.226 15.884 0 26.57 26.231 10.686 49.903 21.082z"/></svg>