<svg xmlns="http://www.w3.org/2000/svg" width="200" height="200" viewBox="0 0 200 200"><path fill="#000" fill-rule="evenodd" d="M143.703 191.797c-1.32-9.45 8.86-6.467 11.932-3.669 3.073 2.798 3.865 4.942-.178 9.25-4.043 4.309-10.433 3.869-11.754-5.581zm-132.55-32.352c-13.716-31.437 10.351-41.575 17.248-63.683 6.896-22.11-22.375-36.535-4.994-53.574C40.787 25.15 54.7 44.4 77.02 40.79c19.15-3.096 30.033-34.613 52.037-23.97 20.967 10.141 14.868 28.657 22.624 39.214 9.052 12.32 34.893 12.568 40.083 28.675 4.17 12.945-14.53 19.36-19.573 33.075-5.045 13.715 12.054 20.487 9.71 30.679-4.125 17.93-22.092 3.496-41.961 13.362-7.554 3.75-4.807 33.216-24.947 37.61-20.14 4.396-21.717-18.176-35.892-23.282-14.175-5.106-57.896 6.327-67.947-16.708zM51.01 7.985C49.976 2.728 56.605-1.592 64.266.57c4.897 1.382 6.434 8.197 6.107 13.344-.327 5.148-2.367 9.645-5.854 10.438-3.487.794-12.477-11.11-13.51-16.367z"/></svg>