<svg xmlns="http://www.w3.org/2000/svg" width="200" height="200" viewBox="0 0 200 200"><path fill="#FFF" fill-rule="evenodd" d="M101.8 152.133c-10.387 5.89-25.45 36.411-41.031 26.773-15.582-9.638 14.543-39.625 3.116-55.689C52.46 107.153 0 121.611 0 101.263c0-20.347 49.755-6.741 56.82-25.057C63.885 57.89 14.543 24.691 35.32 10.77 56.094-3.153 73.234 34.33 96.607 34.33c23.373 0 43.11-42.301 62.327-31.592 19.218 10.71-23.579 49.373-16.62 64.256 6.958 14.884 50.9-11.244 57.133 16.064 6.232 27.31-42.071 8.032-50.381 37.483-8.31 29.45 63.81 47.187 26.934 73.96-36.877 26.773-37.777-63.02-74.2-42.367z"/></svg>