<svg xmlns="http://www.w3.org/2000/svg" width="200" height="200" viewBox="0 0 200 200"><path fill="#000" fill-rule="evenodd" d="M92.026 171.668L62.177 187.36c-8.799 4.626-19.682 1.243-24.308-7.556a18 18 0 01-1.809-11.419l5.7-33.237a18 18 0 00-5.176-15.933L12.436 95.677c-7.119-6.94-7.265-18.335-.326-25.454a18 18 0 0110.302-5.249l33.372-4.85a18 18 0 0013.553-9.846l14.924-30.24c4.4-8.915 15.193-12.575 24.108-8.175a18 18 0 018.175 8.175l14.924 30.24a18 18 0 0013.553 9.847l33.372 4.85c9.838 1.429 16.654 10.563 15.225 20.4a18 18 0 01-5.25 10.302l-24.147 23.538a18 18 0 00-5.177 15.933l5.7 33.237c1.681 9.798-4.9 19.103-14.698 20.784a18 18 0 01-11.419-1.809l-29.849-15.692a18 18 0 00-16.752 0z"/></svg>