<svg xmlns="http://www.w3.org/2000/svg" width="200" height="200" viewBox="0 0 200 200"><path fill="#FFF" fill-rule="evenodd" d="M100 181.747l-15.643 17.022-9.618-21.023-20.138 11.355-2.651-22.966-22.661 4.576 4.576-22.661-22.966-2.651 11.355-20.138-21.023-9.618L18.253 100 1.231 84.357l21.023-9.618-11.355-20.138 22.966-2.651-4.576-22.661 22.661 4.576 2.651-22.966 20.138 11.355 9.618-21.023L100 18.253l15.643-17.022 9.618 21.023 20.138-11.355 2.651 22.966 22.661-4.576-4.576 22.661 22.966 2.651-11.355 20.138 21.023 9.618L181.747 100l17.022 15.643-21.023 9.618 11.355 20.138-22.966 2.651 4.576 22.661-22.661-4.576-2.651 22.966-20.138-11.355-9.618 21.023z"/></svg>