<svg xmlns="http://www.w3.org/2000/svg" width="200" height="200" viewBox="0 0 200 200"><path fill="#000" fill-rule="evenodd" d="M83.729 190.837l-1.631 1.542c-5.311 5.022-13.688 4.788-18.71-.523a13.235 13.235 0 01-3.392-6.658l-.413-2.207c-2.274-12.148-13.64-20.406-25.896-18.814l-2.226.289c-7.249.94-13.888-4.172-14.829-11.42a13.235 13.235 0 011.169-7.381l.963-2.028c5.3-11.165.96-24.526-9.891-30.443L6.9 112.12c-6.417-3.5-8.783-11.538-5.283-17.956A13.235 13.235 0 016.9 88.88l1.972-1.074c10.85-5.917 15.192-19.278 9.89-30.443l-.962-2.028c-3.135-6.603-.324-14.497 6.28-17.632a13.235 13.235 0 017.38-1.169l2.226.29c12.256 1.59 23.622-6.667 25.896-18.815l.413-2.207c1.345-7.185 8.26-11.918 15.444-10.574 2.499.468 4.81 1.646 6.658 3.393l1.63 1.542c8.981 8.492 23.03 8.492 32.01 0l1.631-1.542c5.311-5.022 13.688-4.788 18.71.523a13.235 13.235 0 013.392 6.658l.413 2.207c2.274 12.148 13.64 20.406 25.896 18.814l2.227-.289c7.248-.94 13.887 4.172 14.828 11.42a13.235 13.235 0 01-1.169 7.381l-.963 2.028c-5.3 11.165-.96 24.526 9.892 30.443l1.97 1.074c6.418 3.5 8.784 11.538 5.285 17.956a13.235 13.235 0 01-5.284 5.284l-1.971 1.074c-10.851 5.917-15.193 19.278-9.892 30.443l.963 2.028c3.135 6.603.324 14.497-6.279 17.632a13.235 13.235 0 01-7.38 1.169l-2.227-.29c-12.256-1.59-23.622 6.667-25.896 18.815l-.413 2.207c-1.345 7.185-8.259 11.918-15.444 10.574a13.235 13.235 0 01-6.658-3.393l-1.63-1.542c-8.981-8.492-23.03-8.492-32.01 0z"/></svg>