<svg xmlns="http://www.w3.org/2000/svg" width="200" height="200" viewBox="0 0 200 200"><path fill="#000" fill-rule="evenodd" d="M64 55v14H31C13.88 69 0 82.88 0 100v40c0 17.12 13.88 31 31 31h113c17.12 0 31-13.88 31-31v-40c0-17.12-13.88-31-31-31h-36V55H64zm120 43a4 4 0 00-4 4v36a4 4 0 004 4h12a4 4 0 004-4v-36a4 4 0 00-4-4h-12zm-56 13c5.523 0 10 4.477 10 10s-4.477 10-10 10-10-4.477-10-10 4.477-10 10-10zm-40 0c5.523 0 10 4.477 10 10s-4.477 10-10 10-10-4.477-10-10 4.477-10 10-10zm-40 0c5.523 0 10 4.477 10 10s-4.477 10-10 10-10-4.477-10-10 4.477-10 10-10zm27-91v8h3a5 5 0 015 5v17h8V30c0-5.523-4.477-10-10-10h-6z"/></svg>