<svg xmlns="http://www.w3.org/2000/svg" width="200" height="200" viewBox="0 0 200 200"><path fill="#000" fill-rule="evenodd" d="M100 2c30.376 0 55 25.967 55 58 0 11.838-3.363 22.848-9.137 32.024-10.308 20.446-26.667 40.912-37.743 49.618l-1.483 4.45a2 2 0 011.4 1.87l.925 49a2 2 0 01-1.813 2.03l-.187.008H91.038a2 2 0 01-1.994-1.85l-.006-.188.925-49a2 2 0 011.4-1.87l-1.854-5.565C76.792 129.854 58.159 105.347 49 83c-2.667-9.87-4-17.537-4-23 0-32.033 24.624-58 55-58zM74.158 111.212l-.574-.327-.263-.376c5.78 8.285 12.003 15.76 17.506 21.095 2.596 2.517 4.933 4.459 6.832 5.703.631.413 1.183.729 1.633.944l.208.096.022-.01c.42-.187.945-.474 1.553-.86l.266-.17c1.899-1.244 4.236-3.186 6.832-5.703 5.216-5.058 11.08-12.038 16.6-19.808C117.328 115.765 108.912 118 100 118c-9.34 0-18.138-2.456-25.842-6.788zM100 9.484C73.828 9.484 52.458 32.02 52.458 60c0 27.98 21.37 50.516 47.542 50.516 17.887 0 33.532-10.527 41.644-26.124l.202-.452.032-.003c3.612-7.117 5.664-15.266 5.664-23.937 0-27.98-21.37-50.516-47.542-50.516z"/></svg>