<svg xmlns="http://www.w3.org/2000/svg" width="200" height="200" viewBox="0 0 200 200"><path fill="#FFF" fill-rule="evenodd" d="M137 181a9 9 0 110 18 9 9 0 010-18zm21.5-20c8.008 0 14.5 6.492 14.5 14.5s-6.492 14.5-14.5 14.5-14.5-6.492-14.5-14.5 6.492-14.5 14.5-14.5zm35.495-109.383c8.193 22.51 2.853 47.296-12.22 68.199C188.476 123.586 193 130.764 193 139c0 12.15-9.85 22-22 22-8.823 0-16.433-5.194-19.94-12.692-7.323 4.626-15.364 8.598-24.014 11.747-51.898 18.889-106.067.965-120.99-40.034-14.922-41 15.053-89.548 66.95-108.438 51.898-18.889 106.067-.965 120.99 40.034z"/></svg>