<svg xmlns="http://www.w3.org/2000/svg" width="200" height="200" viewBox="0 0 200 200"><path fill="#000" fill-rule="evenodd" d="M100 5c55.228 0 100 34.026 100 76 0 27.008-18.537 50.726-46.47 64.205A23.385 23.385 0 01157 157.5c0 2.624-.43 5.148-1.224 7.504L155.5 165c8.56 0 15.5 6.94 15.5 15.5v.171A9.5 9.5 0 11178.5 196c-4.761 0-8.705-3.503-9.393-8.072-2.63 4.81-7.738 8.072-13.607 8.072-8.56 0-15.5-6.94-15.5-15.5 0-.138.002-.275.005-.412a23.498 23.498 0 01-6.505.912c-12.979 0-23.5-10.521-23.5-23.5 0-.294.005-.586.016-.878-3.293.25-6.635.378-10.016.378C44.772 157 0 122.974 0 81S44.772 5 100 5z"/></svg>