<svg xmlns="http://www.w3.org/2000/svg" width="200" height="200" viewBox="0 0 200 200"><path fill="#FFF" fill-rule="evenodd" d="M110 0c13.538 0 24.982 8.967 28.715 21.286C151.033 25.018 160 36.462 160 50a29.92 29.92 0 01-2.101 11.052C170.635 64.517 180 76.165 180 90c0 9.014-3.975 17.099-10.268 22.598.177 2.464.268 4.934.268 7.402a91.63 91.63 0 01-.289 7.385C176.016 132.882 180 140.975 180 150c0 16.569-13.431 30-30 30a29.92 29.92 0 01-11.052-2.101C135.483 190.635 123.835 200 110 200c-13.532 0-24.972-8.96-28.71-21.27-5.15-.756-10.207-1.894-15.017-3.522A29.863 29.863 0 0150 180c-16.569 0-30-13.431-30-30a29.888 29.888 0 017.639-20A29.888 29.888 0 0120 110c0-11.639 6.628-21.73 16.315-26.704a127.108 127.108 0 017.795-18.13A29.857 29.857 0 0140 50c0-16.569 13.431-30 30-30 3.903 0 7.632.745 11.052 2.101C84.517 9.365 96.165 0 110 0z"/></svg>