<svg xmlns="http://www.w3.org/2000/svg" width="200" height="200" viewBox="0 0 200 200"><path fill="#FFF" fill-rule="evenodd" d="M80.75 33.002c10.22 0 19.68 2.905 28.535 7.516-13.156-.142-25.655 1.548-33.035 4.234-19.602 7.135-32.75 32.09-24.532 54.666 8.216 22.576 30.768 35.093 50.37 27.96 11.715-4.265 38.959-20.814 52.412-37.126 2.265-2.746 3.934-5.437 5.112-8.071l7 6.555c18.092 16.988 29.638 28.842 29.638 46.516 0 38.428-77.589 35.151-117.598 35.005l-2.402-.005c-39.212 0-72.25 1.75-72.25-58s36-79.25 76.75-79.25zm104.517-2.884c6.563.923 11.136 6.99 10.213 13.554a11.962 11.962 0 01-4.653 7.907c5.089 1.083 8.544 5.937 7.81 11.17-.77 5.468-5.826 9.279-11.295 8.51-2.252-.316-4.586-1.917-7.001-4.802a5.997 5.997 0 00-6.649-1.789l-17.521 6.378c-6.005 17.494-37.947 40.416-52.573 45.74-17.386 6.327-36.61-2.637-42.938-20.023-6.328-17.385 2.636-36.61 20.022-42.937 14.626-5.323 53.828-8.296 69.673 1.245l15.255-5.552a8 8 0 004.72-4.626l.277-.73c.567-1.53.926-2.742 1.076-3.632l.03-.2c.923-6.563 6.991-11.135 13.554-10.213z"/></svg>