<svg xmlns="http://www.w3.org/2000/svg" width="200" height="200" viewBox="0 0 200 200"><path fill="#000" fill-rule="evenodd" d="M100 13c34.933 0 65.575 2.56 91.928 7.678.84.162 1.483.84 1.6 1.686C197.844 53.556 200 79.602 200 100.5c0 20.898-2.157 46.944-6.47 78.136a2 2 0 01-1.602 1.687C165.575 185.44 134.933 188 100 188s-65.575-2.56-91.928-7.678a1.997 1.997 0 01-1.6-1.686C2.222 147.923.066 122.201 0 101.468v-.968c0-20.898 2.157-46.944 6.47-78.136a2 2 0 011.602-1.687C34.425 15.56 65.067 13 100 13zM75 63v75l56.25-37.5L75 63z"/></svg>