<svg xmlns="http://www.w3.org/2000/svg" width="200" height="200" viewBox="0 0 200 200"><path fill="#FFF" fill-rule="evenodd" d="M99.5 0c60 0 73.5 39.5 73.492 76.875v2.176l-.002 4.59v53.013l.001 7.645v1.305l.001 6.656v1.357l.001 6.92v1.41l.001 4.283v1.446l.001 5.87v1.488l.001 4.52v1.525l.001 3.075v1.551l.001 4.705v1.586a8 8 0 01-7.996 8.004h-34.18a8 8 0 01-7.98-7.44c-1.512-21.702-12.477-32.555-32.895-32.557-20.467-.002-31.68 10.902-33.637 32.712A8 8 0 0148.343 200H34.009a8 8 0 01-8-8c.032-28.036.052-51.947.058-71.74l.001-2.309v-1.14l.001-2.253V96.946v-2.824-.922l-.002-1.815c-.002-6.289-.007-11.879-.014-16.77C26 38 39.5 0 99.5 0zM114 48H57c-11.046 0-20 8.954-20 20v10c0 11.046 8.954 20 20 20h57c11.046 0 20-8.954 20-20V68c0-11.046-8.954-20-20-20z"/></svg>