<svg xmlns="http://www.w3.org/2000/svg" width="200" height="200" viewBox="0 0 200 200"><path fill="#FFF" fill-rule="evenodd" d="M137.464 10.567c27.809 13.598 4.924 37.031 13.615 44.842 8.69 7.811 39.396-17.647 46.058 15.044 6.663 32.69-27.23 10.415-34.182 31.244-6.952 20.83 46.349 53.521 19.698 82.162-26.65 28.641-50.114-28.64-84.006-28.64s-62.28 60.174-87.482 28.64c-25.202-31.534 19.623-60.967 27.81-82.162 8.185-21.195-52.143-20.25-33.314-53.81 12.39-22.082 30.612-17.734 49.343-12.178l5.304 1.582 1.653.486c7.438 2.167 14.853 4.035 21.913 4.035 27.082 0 25.781-44.842 53.59-31.245zM129.5 120c-6.351 0-11.5 5.149-11.5 11.5s5.149 11.5 11.5 11.5 11.5-5.149 11.5-11.5-5.149-11.5-11.5-11.5zM78 96c-11.046 0-20 8.954-20 20s8.954 20 20 20 20-8.954 20-20-8.954-20-20-20zm54.5-29c-6.351 0-11.5 5.149-11.5 11.5S126.149 90 132.5 90 144 84.851 144 78.5 138.851 67 132.5 67zm-90-17C36.149 50 31 55.149 31 61.5S36.149 73 42.5 73 54 67.851 54 61.5 48.851 50 42.5 50z"/></svg>