<svg xmlns="http://www.w3.org/2000/svg" width="200" height="200" viewBox="0 0 200 200"><path fill="#000" fill-rule="evenodd" d="M113.026 12.24C124.731 2.819 139.304-1.164 156.748.294c-1.533 16.735-8.152 29.815-19.856 39.238-10.94 8.808-24.388 12.862-40.344 12.163 2.495 5.23 4.188 10.904 5.079 17.018 13.589-8.457 28.805-14.002 42.575-10.787 34.743 8.11 40.864 31.379 42.64 57.342 2.694 39.375-29.278 82.854-85.355 83.72l-1.504.011C96.8 199.655 93.331 200 89.565 200c-42.01 0-75.837-40.765-79.656-65.85-3.82-25.086 3.819-69.508 33.992-76.078 15.789-3.439 33.527 1.538 48.652 12.9C91.338 51.36 79.726 36.256 57.72 25.66l-.67-.32 4.368-5.239C76.215 26.728 87.003 35.56 93.78 46.598c2.29-14.418 8.705-25.87 19.246-34.357z"/></svg>