<svg xmlns="http://www.w3.org/2000/svg" width="200" height="200" viewBox="0 0 200 200"><path fill="#FFF" fill-rule="evenodd" d="M100 2c14.33 0 26.63 15.117 34.358 38.49 24.106-4.993 43.348-1.9 50.512 10.51 7.166 12.41.223 30.62-16.155 49 16.378 18.38 23.32 36.59 16.155 49-7.164 12.41-26.406 15.503-50.512 10.51C126.629 182.882 114.33 198 100 198c-14.33 0-26.63-15.117-34.358-38.49-24.106 4.993-43.348 1.9-50.512-10.51-7.166-12.41-.223-30.62 16.155-49C14.907 81.62 7.965 63.41 15.13 51c7.164-12.41 26.406-15.503 50.512-10.51C73.371 17.118 85.67 2 100 2zm0 146.183l-.837.368c-9.533 4.162-18.85 7.381-27.63 9.602C78.438 178.834 88.825 192 100 192s21.561-13.166 28.468-33.847c-9.038-2.286-18.643-5.629-28.468-9.97zm-64.595-43.76l-.494.56C20.807 121.1 14.803 136.432 20.326 146c5.587 9.677 22.182 12.09 43.546 7.73-2.54-8.97-4.447-18.959-5.6-29.638-8.672-6.34-16.37-12.986-22.867-19.67zm129.19 0l-.654.668c-6.358 6.458-13.83 12.873-22.212 19-1.154 10.68-3.062 20.67-5.601 29.64 21.364 4.359 37.96 1.946 43.546-7.731 5.587-9.677-.621-25.256-15.078-41.578zm-99.694 24.323l.053.395c1.153 8.35 2.783 16.163 4.8 23.248 7.255-1.825 14.961-4.37 22.9-7.618-4.7-2.292-9.43-4.805-14.154-7.532a229.244 229.244 0 01-13.6-8.493zm70.199 0l-.14.094a229.325 229.325 0 01-13.46 8.4 229.244 229.244 0 01-14.154 7.53c7.939 3.25 15.645 5.794 22.9 7.619 2.049-7.196 3.698-15.143 4.854-23.643zM100 58.408l-.053.024A218.38 218.38 0 0081.5 67.957a218.352 218.352 0 00-17.52 11.247C63.34 85.884 63 92.844 63 100c0 7.156.34 14.117.98 20.795a218.234 218.234 0 0017.52 11.248 218.352 218.352 0 0018.5 9.549 218.455 218.455 0 0018.5-9.55 218.352 218.352 0 0017.52-11.246c.64-6.68.98-13.64.98-20.796 0-7.156-.34-14.117-.98-20.795a218.234 218.234 0 00-17.52-11.248 218.352 218.352 0 00-18.5-9.549zM100 80c11.046 0 20 8.954 20 20s-8.954 20-20 20-20-8.954-20-20 8.954-20 20-20zm42.445 3.976l.011.167c.359 5.164.544 10.46.544 15.857 0 5.455-.19 10.808-.555 16.024 6.782-5.25 12.84-10.652 18.048-16.024-5.207-5.371-11.265-10.773-18.048-16.024zm-84.89 0l-.315.244C50.585 89.394 44.634 94.712 39.506 100c5.209 5.372 11.267 10.773 18.049 16.024A229.44 229.44 0 0157 100c0-5.455.19-10.808.555-16.024zM20.325 54c-5.586 9.677.622 25.256 15.08 41.578 6.498-6.684 14.195-13.33 22.866-19.669 1.116-10.324 2.935-20.002 5.35-28.738l.25-.901C42.509 41.91 25.914 44.323 20.327 54zm115.803-7.73c2.54 8.97 4.447 18.959 5.6 29.638 8.672 6.34 16.37 12.986 22.867 19.67 14.458-16.322 20.666-31.901 15.08-41.578-5.588-9.677-22.183-12.09-43.547-7.73zM69.753 47.61l-.083.294c-2.01 7.119-3.63 14.965-4.77 23.349a229.38 229.38 0 0113.6-8.493 229.244 229.244 0 0114.154-7.53c-7.939-3.25-15.645-5.795-22.901-7.62zm60.494 0l-.297.075c-7.169 1.82-14.773 4.339-22.604 7.543 4.7 2.292 9.43 4.805 14.154 7.532a229.244 229.244 0 0113.6 8.493c-1.156-8.5-2.805-16.447-4.853-23.643zM100 8C88.826 8 78.439 21.166 71.532 41.847c9.038 2.286 18.643 5.629 28.468 9.97 9.825-4.341 19.43-7.684 28.468-9.97C121.56 21.166 111.174 8 100 8z"/></svg>