<svg xmlns="http://www.w3.org/2000/svg" width="200" height="200" viewBox="0 0 200 200"><path fill="#FFF" fill-rule="evenodd" d="M65.337 38.126c7.045.734 11.243 1.139 12.594 1.214.165 2.19 1.145 7.793 2.939 16.81a3 3 0 004.797 1.772C93.213 51.987 97.824 48.18 99.5 46.5c1.405 2.278 5.251 6.855 11.538 13.732a4 4 0 006.7-1.309c3.483-9.37 5.436-15.31 5.859-17.82 3.653-.103 6.84-.274 11.774-.517C138.557 52.596 139 71.27 139 100c0 6.495 2.857 16.422 5.942 26.105 5.039 15.153 7.558 24.201 7.558 27.145 0 32.309-20.691 42.75-53 42.75S41 169.809 41 137.5l.005-1.408c.158-23.506 4.31-71.665 24.332-97.966zM107.446.913l.304.087a1.23 1.23 0 01.645 1.923c-1.285 1.705-2.083 2.98-2.395 3.827-.226.612-.365 1.442-.418 2.488 9.599 1.111 19.074 6.079 22.75 14.132l.168.38c.725 1.691 5.87 4.082 15.436 7.174a2 2 0 01-.6 3.904c-16.615-.061-25.168-.114-25.659-.158-1.334 5.869-2.645 11.072-3.933 15.61a1.998 1.998 0 01-3.413.789c-6.23-7.289-9.734-11.629-10.509-13.02-4.252 4.141-8.148 7.784-11.687 10.93a2 2 0 01-3.327-1.404c-.421-8.67-.645-13.205-.672-13.602l-23.68-1.739a2 2 0 01-.526-3.876c9.171-3.721 14.21-6.1 15.115-7.137l.078-.093A31.986 31.986 0 0195.027 9.583a49.681 49.681 0 013.937-.478c.202-2.11.547-3.644 1.036-4.605.484-.952 2.01-2.062 4.58-3.33a3.997 3.997 0 012.866-.257z"/></svg>