<svg xmlns="http://www.w3.org/2000/svg" width="200" height="200" viewBox="0 0 200 200"><path fill="#FFF" fill-rule="evenodd" d="M100 32c35.24 0 67.287 20.765 96.145 62.291a10 10 0 01.002 11.407l-.867 1.24C166.65 147.646 134.89 168 100 168c-35.24 0-67.287-20.765-96.145-62.291a10 10 0 01-.002-11.407l.867-1.24C33.35 52.354 65.11 32 100 32zm20 58a2 2 0 00-2 2v6h-6v-6a2 2 0 00-4 0v6h-6v-6a2 2 0 00-4 0v6h-6v-6a2 2 0 10-4 0v6h-6v-6a2 2 0 10-4 0v6h-6a2 2 0 100 4h6v6a2 2 0 004 0v-6h6v6a2 2 0 004 0v-6h6v6a2 2 0 004 0v-6h6v6a2 2 0 004 0v-6h6v6a2 2 0 004 0v-6h6a2 2 0 000-4h-6v-6a2 2 0 00-2-2z"/></svg>