<svg xmlns="http://www.w3.org/2000/svg" width="200" height="200" viewBox="0 0 200 200"><path fill="#000" fill-rule="evenodd" d="M132.645 10.758C169.031 24.07 195 59.003 195 100c0 52.467-42.533 95-95 95S5 152.467 5 100c0-40.83 25.759-75.645 61.913-89.08.806 14.683-2.663 28.33-14.996 40.997-26.189 26.896-26.556 69.61 0 96.166 26.555 26.556 69.61 26.556 96.166 0 26.289-26.289 26.903-69.07.793-95.36C135 38.75 132.169 26.18 132.624 11.28l.021-.522zM100 5c7.158 0 14.132.792 20.838 2.292-1.584 18.905-3.11 31.24 18.76 53.11s21.87 57.327 0 79.196c-21.87 21.87-57.327 21.87-79.196 0-21.367-21.367-21.858-55.705-1.473-77.668C79.315 39.968 80.574 26.932 78.681 7.402A95.264 95.264 0 01100 5z"/></svg>