<svg xmlns="http://www.w3.org/2000/svg" width="200" height="200" viewBox="0 0 200 200"><path fill="#000" fill-rule="evenodd" d="M188.208 9.005l.004.151v14.867c0 18.177 24.88 85.903-14.299 126.46-48.969 50.694-86.842 51.295-151.047 31.145l-3.497-1.103a656.834 656.834 0 00-13.087-3.905 3.152 3.152 0 01-2.157-3.903l.96-3.309a3.166 3.166 0 014.398-1.971c4.932 2.344 8.742 3.449 11.43 3.313 39.567-1.995 72.872-17.911 104.946-45.5 32.075-27.589 47.991-54.705 52.983-101.227l-2.33-14.095a3.157 3.157 0 012.97-3.666l5.414-.258a3.161 3.161 0 013.312 3.001zm-7.685 104.091a2.111 2.111 0 00-2.587 1.223c-10.316 25.767-28.226 43.543-53.83 53.434-25.842 9.984-47.088 13.756-63.699 11.376a2.104 2.104 0 00-2.385 1.77 2.093 2.093 0 001.784 2.368c17.438 2.498 39.368-1.395 65.828-11.618 26.7-10.315 45.47-28.946 56.217-55.786a2.085 2.085 0 00-1.18-2.715l-.148-.052zm-1.73-41.897a2.092 2.092 0 00-2.786 1.012c-10.843 23.234-21.814 40.651-32.878 52.242-11.073 11.6-27.753 23.478-50.032 35.597a2.105 2.105 0 00-.843 2.85 2.092 2.092 0 002.84.845c22.63-12.31 39.649-24.428 51.062-36.385 11.423-11.967 22.626-29.752 33.646-53.367a2.104 2.104 0 00-1.01-2.794z"/></svg>