<svg xmlns="http://www.w3.org/2000/svg" width="200" height="200" viewBox="0 0 200 200"><path fill="#FFF" fill-rule="evenodd" d="M84 3c8.593 0 15.92 5.419 18.75 13.026A16.465 16.465 0 01115.5 10c9.113 0 16.5 7.387 16.5 16.5 0 4.419-2.928 10.582-8.784 14.489l-.395.26a14.996 14.996 0 00-6.82 12.57L116 148.182c0 4.014 2.188 7.709 5.708 9.639C131.236 163.048 136 171.775 136 178c0 11.046-8.954 20-20 20-7.63 0-14.261-4.272-17.633-10.554C95.429 191.99 90.316 195 84.5 195c-9.113 0-16.5-7.387-16.5-16.5 0-4.958 3.663-12.532 10.988-16.724a10.991 10.991 0 005.54-9.497l.43-97.6a15.998 15.998 0 00-7.948-13.89l-.31-.177C68.232 35.931 64 28.726 64 23c0-11.046 8.954-20 20-20z"/></svg>