<svg xmlns="http://www.w3.org/2000/svg" width="200" height="200" viewBox="0 0 200 200"><path fill="#000" fill-rule="evenodd" d="M141 127.75c.81 17.64-4.667 39.6-16.429 65.883a3.997 3.997 0 01-3.65 2.367H78.154a3.992 3.992 0 01-3.646-2.367C62.745 167.35 57.27 145.39 58.078 127.75 59.513 96.48 76.016 79.713 82.747 68h33.584c6.73 11.713 23.235 28.48 24.669 59.75zm-27.5-68c0 1.358.316 2.766.88 4.25H84.698c.564-1.484.88-2.892.88-4.25 0-6.357-.863-9.825-2.674-13.75h33.268c-1.81 3.925-2.673 7.393-2.673 13.75zM99.578 4l.615.008c.819.023 1.636.09 2.448.202 12.262 1.692 20.83 13.003 19.138 25.265l-.147 1.027c-.7 4.697-1.578 8.03-2.632 9.998l-.801 1.5-37.318.001-.803-1.501c-1.123-2.096-2.044-5.738-2.765-10.926-1.71-12.297 6.874-23.65 19.17-25.36a22.48 22.48 0 012.474-.205L99.578 4z"/></svg>