<svg xmlns="http://www.w3.org/2000/svg" width="200" height="200" viewBox="0 0 200 200"><path fill="#000" fill-rule="evenodd" d="M145 131c-12.15 0-22 9.85-22 22s9.85 22 22 22 22-9.85 22-22-9.85-22-22-22zM29 25c-5.523 0-10 4.477-10 10v108H0v10h117c0-15.464 12.536-28 28-28s28 12.536 28 28h17c5.523 0 10-4.477 10-10V89c0-35.346-28.654-64-64-64H29zm12 24h35a8 8 0 018 8v78a8 8 0 01-8 8H41a8 8 0 01-8-8V57a8 8 0 018-8zm0 4a4 4 0 00-4 4v78a4 4 0 004 4h35a4 4 0 004-4V57a4 4 0 00-4-4H41zm106-4c12.703 0 23 10.297 23 23s-10.297 23-23 23-23-10.297-23-23 10.297-23 23-23z"/></svg>