<svg xmlns="http://www.w3.org/2000/svg" width="200" height="200" viewBox="0 0 200 200"><path fill="#000" fill-rule="evenodd" d="M100 8c6.268 0 12.39.627 18.306 1.821-3.95 3.455-6.048 8.828-5.07 14.37a15.45 15.45 0 006.618 10.172c-4.3 3.425-6.64 9.034-5.619 14.829 1.142 6.476 6.151 11.299 12.233 12.512a15.445 15.445 0 00-.233 6.488c1.487 8.43 9.526 14.059 17.957 12.573 1.36-.24 2.648-.65 3.843-1.207.038.542.104 1.087.2 1.634 1.487 8.43 9.526 14.059 17.957 12.573a15.427 15.427 0 006.718-2.945 15.476 15.476 0 0013.282 3.945 15.457 15.457 0 005.518-2.113c.192 2.424.29 4.874.29 7.348 0 50.81-41.19 92-92 92S8 150.81 8 100 49.19 8 100 8zm1.886 140.39l-6.42 12.92 17.926 10.35 7.441-16.488-18.947-6.783zm-60.312-45.62l-15.885 10.437 6.096 12.187 17.996-7.64-8.207-14.984zM124.7 86l-14.2-4-11.1 8.6 1.15 18.4H127l-2.3-23zM82.585 45.888l-22.36.12-1.794 15.93L68.75 68.75l12.331-2.818 1.504-20.044z"/></svg>