<svg xmlns="http://www.w3.org/2000/svg" width="200" height="200" viewBox="0 0 200 200"><path fill="#000" fill-rule="evenodd" d="M100.5 9.5a3 3 0 013 3v12.58a74.7 74.7 0 0122.411 4.516l4.773-11.812a3 3 0 115.563 2.248l-4.793 11.863a75.131 75.131 0 0119.934 13.476l9.216-9.218a3 3 0 014.243 4.243l-9.258 9.256a75.106 75.106 0 0112.516 18.893l12.227-5.19a3 3 0 112.345 5.522l-12.274 5.21A74.739 74.739 0 01174.96 97.5H188.5a3 3 0 010 6h-13.58a74.708 74.708 0 01-4.388 22.06l12.684 5.124a3 3 0 11-2.248 5.563l-12.706-5.134a75.111 75.111 0 01-13.15 19.757l9.735 9.734a3 3 0 11-4.243 4.243l-9.734-9.735a75.138 75.138 0 01-18.581 12.601l5.357 12.62a3 3 0 01-5.523 2.344l-5.347-12.598a74.68 74.68 0 01-23.275 4.84L103.5 188.5a3 3 0 01-6 0v-13.54a74.772 74.772 0 01-22.185-4.117l-4.999 12.373a3 3 0 01-5.563-2.248l4.98-12.326a75.08 75.08 0 01-20.08-13.053l-9.257 9.258a3 3 0 11-4.243-4.243l9.218-9.216a75.158 75.158 0 01-12.915-18.747l-11.788 5.005a3 3 0 01-2.345-5.523l11.738-4.983a74.673 74.673 0 01-4.98-23.64H12.5a3 3 0 010-6h12.54a74.762 74.762 0 014.241-22.538l-11.497-4.646a3 3 0 112.248-5.563L31.51 69.39a75.1 75.1 0 0113.378-20.26l-8.735-8.734a3 3 0 114.243-4.243l8.734 8.735A75.127 75.127 0 0168.19 32.06l-4.836-11.392a3 3 0 015.523-2.345l4.844 11.41a74.73 74.73 0 0123.78-4.692L97.5 12.5a3 3 0 013-3z"/></svg>