<svg xmlns="http://www.w3.org/2000/svg" width="200" height="200" viewBox="0 0 200 200"><path fill="#FFF" fill-rule="evenodd" d="M100 3c22.27 0 42.787 7.505 59.16 20.124a17.435 17.435 0 0110.237-3.301c9.675 0 17.518 7.843 17.518 17.517 0 4.46-1.667 8.531-4.411 11.624C191.694 63.789 197 81.274 197 100c0 53.572-43.428 97-97 97S3 153.572 3 100 46.428 3 100 3zm0 4C48.638 7 7 48.638 7 100s41.638 93 93 93 93-41.638 93-93c0-17.7-4.944-34.244-13.527-48.328a17.435 17.435 0 01-10.076 3.186c-9.675 0-17.518-7.843-17.518-17.518 0-4.388 1.614-8.4 4.28-11.474C140.557 14.026 121.1 7 100 7zm0 64c16.569 0 30 13.431 30 30 0 16.569-13.431 30-30 30-16.569 0-30-13.431-30-30 0-16.569 13.431-30 30-30z"/></svg>