<svg xmlns="http://www.w3.org/2000/svg" width="200" height="200" viewBox="0 0 200 200"><path fill="#000" fill-rule="evenodd" d="M132.5 2a6 6 0 016 6c0 10.579-3.447 19.366-10.026 27.084-4.814 5.648-10.16 9.864-20.231 16.625l-4.654 3.108C92.98 61.923 87.402 66.395 82.752 72.172 76.965 79.359 74 87.555 74 98.052c0 10.502 2.967 18.747 8.78 26.081 4.557 5.75 9.784 10.111 20.358 17.595l4.265 3.01 1.685 1.202c9.284 6.658 14.239 10.871 18.903 16.561 6.902 8.42 10.509 17.968 10.509 29.499a6 6 0 01-12 0c0-8.677-2.6-15.562-7.79-21.891l-.454-.547-.48-.561c-3.79-4.367-8.348-8.093-16.855-14.147l-5.357-3.786-1.794-1.281c-9.899-7.115-15.32-11.798-20.394-18.2C65.908 122.166 62 111.306 62 98.053c0-13.27 3.923-24.113 11.405-33.406l.628-.77c5.16-6.22 11.023-10.993 20.999-17.763l4.337-2.908 1.615-1.078c9.566-6.4 14.386-10.169 18.357-14.828 4.783-5.61 7.159-11.668 7.159-19.3a6 6 0 016-6zM84.92 150.75l.842-.648 1.29.97a297.915 297.915 0 004.973 3.615l1.883 1.335 2.048 1.446-1.1.812c-5.903 4.39-9.48 7.566-12.612 11.282l-.455.547C76.601 176.439 74 183.323 74 192a6 6 0 01-12 0c0-11.53 3.607-21.08 10.509-29.499 3.44-4.196 7.037-7.588 12.412-11.75zM121 188a2.5 2.5 0 110 5H80a2.5 2.5 0 110-5h41zm-10-16a2.5 2.5 0 110 5H90a2.5 2.5 0 110-5h21zm4.131-118.934c4.61 3.599 8.11 6.922 11.336 10.811l.628.77c7.482 9.293 11.405 20.135 11.405 33.406 0 13.253-3.908 24.113-11.376 33.534-3.521 4.442-7.209 8.057-12.443 12.23l-1.183-.862a384.204 384.204 0 00-3.175-2.275l-4.825-3.407-1.022-.729c6.079-4.612 9.847-8.126 13.244-12.411 5.813-7.334 8.78-15.579 8.78-26.08 0-10.498-2.965-18.694-8.752-25.881-3.372-4.189-7.232-7.692-13.143-12.01l1.166-.788 5.272-3.523 1.403-.946c.687-.466 1.351-.92 1.996-1.364l.69-.475zM111 117a2.5 2.5 0 110 5H90a2.5 2.5 0 110-5h21zm10-14a2.5 2.5 0 110 5H80a2.5 2.5 0 110-5h41zm0-15a2.5 2.5 0 110 5H80a2.5 2.5 0 110-5h41zm-10-16a2.5 2.5 0 110 5H90a2.5 2.5 0 110-5h21zM68 2a6 6 0 016 6c0 7.632 2.376 13.69 7.159 19.3 3.417 4.009 7.462 7.359 14.619 12.292l-2.957 1.98-1.496 1.017a212.903 212.903 0 00-6.058 4.28c-5.833-4.218-9.683-7.61-13.24-11.785C65.446 27.366 62 18.58 62 8a6 6 0 016-6zm43 20a2.5 2.5 0 110 5H90a2.5 2.5 0 110-5h21zm10-14a2.5 2.5 0 110 5H80a2.5 2.5 0 110-5h41z"/></svg>