<svg xmlns="http://www.w3.org/2000/svg" width="200" height="200" viewBox="0 0 200 200"><path fill="#000" fill-rule="evenodd" d="M100.5 6c34.72 0 62.93 27.868 63.491 62.458l.005.542.004 82.306C164 175.438 144.44 195 120.312 195c-24.128 0-43.688-19.562-43.688-43.694l.006-.495.016-.508a47.003 47.003 0 00-14.429-35.958l-.427-.404C45.263 98.49 37 83.679 37 69.508 37 34.434 65.43 6 100.5 6zm-.508 14c-28.163 0-50.994 22.833-50.994 51a3 3 0 106 0c0-24.853 20.144-45 44.994-45l.744.006c24.507.397 44.25 20.39 44.25 44.994v7.712c-5.956-8.446-15.788-13.962-26.908-13.962-18.174 0-32.907 14.735-32.907 32.912a3 3 0 105.999 0c0-14.863 12.047-26.912 26.908-26.912s26.908 12.049 26.908 26.912v21.484l-.46.083c-12.568 2.299-19.287 9.353-19.287 20.771 0 12.427 7.974 19.191 22.633 19.748a3 3 0 00.228-5.996c-11.671-.443-16.862-4.846-16.862-13.752 0-9.004 5.33-13.93 17.087-15.27l2.66-.302V71c0-28.167-22.83-51-50.993-51z"/></svg>