<svg xmlns="http://www.w3.org/2000/svg" width="200" height="200" viewBox="0 0 200 200"><path fill="#000" fill-rule="evenodd" d="M151 94c2.22 0 4.16 1.207 5.197 3H196a3 3 0 010 6l-39.803.001A6 6 0 11151 94zm-99 0a6 6 0 11-5.197 9.001L4 103a3 3 0 010-6h42.803A5.998 5.998 0 0152 94zm45.79 4.94c7.583-10.978 21.928-13.203 32.04-4.97a23.803 23.803 0 013.784 3.887l.738.953c.982 1.268.831 3.16-.337 4.226-1.168 1.067-2.91.903-3.893-.365l-.738-.952a18.055 18.055 0 00-2.87-2.948c-7.58-6.173-18.298-4.596-24.1 3.482l-.203.287a24.13 24.13 0 01-3.58 4.11c-9.673 8.831-24.11 7.477-32.245-3.026l-.738-.953c-.982-1.268-.831-3.16.337-4.227 1.168-1.066 2.91-.902 3.893.366l.738.952c6.17 7.967 17.12 8.994 24.459 2.295a18.303 18.303 0 002.715-3.117z"/></svg>