<svg xmlns="http://www.w3.org/2000/svg" width="200" height="200" viewBox="0 0 200 200"><path fill="#FFF" fill-rule="evenodd" d="M129.25 6C164.75 38 188 67.325 188 103.5c0 34.716-43.13 63.124-87.856 65.358L104 192H84.44a6 6 0 01-5.738-4.247l-6.479-21.203C38.833 158.793 19 133.502 19 103.5 19 67.325 54.25 23.75 129.25 6zM119 24c-10.286 15.82-18.61 29.805-24.972 41.956-1.332-3.871-3.842-6.69-7.528-8.456-9.393-4.5-21.92-5-37.58-1.5l1.537.134C63.642 57.341 73.407 59.63 79.75 63c4.032 2.142 7.094 6.532 9.187 13.17-2.205 4.685-4.06 9.043-5.562 13.071C81.46 87.016 78.919 85.27 75.75 84 63.424 79.063 50.507 79.397 37 85c10.273-1.333 20.107.583 29.5 5.75 5.334 2.934 9.547 7.399 12.638 13.395-1.178 6.725-1.513 14.414-1.004 23.069-2.39-3.647-5.434-6.302-9.134-7.964-11.5-5.167-24.162-5.131-37.985.106 11.345 0 21.715 2.584 31.108 7.75 8.184 4.502 14.9 14.29 20.147 29.365A323.945 323.945 0 0086 172.25c.032-2.674.084-5.308.158-7.9 6.332-20.076 15.696-32.61 28.092-37.6 12.833-5.167 27-7.75 42.5-7.75-18.66-4.937-36.41-4.937-53.25 0-6.622 1.941-11.567 5.567-14.836 10.878.944-7.56 2.135-14.64 3.574-21.238 6.264-8.04 13.6-13.754 22.012-17.14 12.833-5.167 29.667-6.333 50.5-3.5-16.826-9.103-33.66-11.187-50.5-6.25-7.205 2.112-13.219 5.853-18.041 11.223l.587-2.084c.999-3.515 2.1-7.235 3.303-11.161l.734-2.381c6.079-7.45 12.05-12.316 17.917-14.597 8.7-3.383 21.76-5.599 39.182-6.646L159.75 56c-16-4.5-30.417-4.5-43.25 0a31.639 31.639 0 00-10.897 6.49l1.2-3.608c3.255-9.734 6.97-20.39 11.144-31.968L119 24z"/></svg>