<svg xmlns="http://www.w3.org/2000/svg" width="200" height="200" viewBox="0 0 200 200"><path fill="#FFF" fill-rule="evenodd" d="M44.086 20.727C31.978 38.981 24 60.052 24 76.5c0 67.53 65.484 35.11 75.282 120.488l-.003.01C46.039 196.61 3 153.33 3 100c0-32.75 16.23-61.71 41.086-79.273zm113.737 1.384C181.597 39.79 197 68.096 197 100c0 53.028-42.55 96.117-95.37 96.987C111.088 111.612 177 144.027 177 76.5c0-15.793-7.354-35.846-18.658-53.577l-.52-.812zM101 3l.18.724c5.158 20.66 11.015 33.419 17.57 38.276 6.632 4.913 19.048 5.497 37.25 1.75-18.353 11.2-30.77 22.116-37.25 32.75l-.431.722-.238.415-.244.445c-3.6 6.711-8.285 21.561-14.055 44.55l-.417 1.672c-.77 3.09-1.558 6.322-2.365 9.696l-.725-2.977-.715-2.902-.354-1.423-.829-3.303-.692-2.72c-3.128-12.215-5.928-22.056-8.4-29.521l-.304-.912-.392-1.153c-2.008-5.847-3.787-10.043-5.339-12.589C76.77 65.866 64.353 54.95 46 43.75c18.202 3.747 30.618 3.163 37.25-1.75C89.882 37.087 95.798 24.087 101 3z"/></svg>