<svg xmlns="http://www.w3.org/2000/svg" width="200" height="200" viewBox="0 0 200 200"><path fill="#000" fill-rule="evenodd" d="M27 26h24a5 5 0 015 5v60a5 5 0 01-5 5H27a5 5 0 01-5-5V31a5 5 0 015-5zm40-14h25a5 5 0 015 5v74a5 5 0 01-5 5H67a5 5 0 01-5-5V17a5 5 0 015-5zm41 0h25a5 5 0 015 5v74a5 5 0 01-5 5h-25a5 5 0 01-5-5V17a5 5 0 015-5zm41 14h24a5 5 0 015 5v60a5 5 0 01-5 5h-24a5 5 0 01-5-5V31a5 5 0 015-5zm24 76a5 5 0 015 5v48a5 5 0 01-5 5h-30a5 5 0 00-5 5v18a5 5 0 01-5 5H67a5 5 0 01-5-5v-43a5 5 0 015-5h28a8 8 0 008-8v-20a5 5 0 015-5h65zm-81 0a5 5 0 015 5v17a5 5 0 01-5 5H64a8 8 0 00-8 8v18a5 5 0 01-5 5H27a5 5 0 01-5-5v-48a5 5 0 015-5h65z"/></svg>