<svg xmlns="http://www.w3.org/2000/svg" width="200" height="200" viewBox="0 0 200 200"><path fill="#000" fill-rule="evenodd" d="M100 5c52.467 0 95 42.533 95 95s-42.533 95-95 95-95-42.533-95-95S47.533 5 100 5zm.5 170c12.979 0 23.5-13.431 23.5-30 0-16.569-10.521-30-23.5-30S77 128.431 77 145c0 16.569 10.521 30 23.5 30zM55 76c-8.284 0-15 6.716-15 15 0 8.284 6.716 15 15 15 8.284 0 15-6.716 15-15 0-8.284-6.716-15-15-15zm90 0c-8.284 0-15 6.716-15 15 0 8.284 6.716 15 15 15 8.284 0 15-6.716 15-15 0-8.284-6.716-15-15-15z"/></svg>