<svg xmlns="http://www.w3.org/2000/svg" width="200" height="200" viewBox="0 0 200 200"><path fill="#FFF" fill-rule="evenodd" d="M100 5c52.467 0 95 42.533 95 95s-42.533 95-95 95-95-42.533-95-95S47.533 5 100 5zm39 128.5H62c0 15.74 17.237 28.5 38.5 28.5s38.5-12.76 38.5-28.5zM55 76c-8.284 0-15 6.716-15 15 0 8.284 6.716 15 15 15 8.284 0 15-6.716 15-15 0-8.284-6.716-15-15-15zm95 3c-9.834 0-17.004 4.957-20.653 14.19-1.018 2.574.28 5.47 2.9 6.47s5.567-.276 6.585-2.85C140.979 91.376 144.417 89 150 89c5.583 0 9.02 2.376 11.168 7.81 1.018 2.574 3.966 3.85 6.585 2.85 2.62-1 3.918-3.896 2.9-6.47C167.004 83.957 159.834 79 150 79z"/></svg>