<svg xmlns="http://www.w3.org/2000/svg" width="200" height="200" viewBox="0 0 200 200"><path fill="#FFF" fill-rule="evenodd" d="M87.01.72c5.965-2.937 10.116 4.057 15.176 4.057 4.054 0 10.525-6.407 15.176-4.057 5.107 2.581 8.425 7.38 13.49 8.114 5.07.735 10.539-8.074 14.051-5.578C163.56 16.51 168.51 45.758 168.51 67.654c0 32.135-26.704 51.203-60.703 53.088l-.002 34.498c4.124-8.761 10.308-16.152 18.55-22.174 16.887-12.336 35.435-20.45 55.645-24.34-2.338 25.893-11.95 45.008-28.838 57.345-14.891 10.879-30.01 17.673-45.356 20.383V200H95.442v-17.089c-16.403-.263-32.11-5.878-47.122-16.844C31.432 153.73 21.66 135.293 19 110.755c22.468 2.47 42.145 9.873 59.032 22.21 7.66 5.596 13.463 12.068 17.41 19.417l-.001-31.709c-33.462-2.24-59.579-21.24-59.579-53.019 0-20.932 6.872-50.958 24.169-64.398C64.117.08 67.475 9.462 72.959 8.834 76.65 8.41 82.769 2.809 87.01.72z"/></svg>