<svg xmlns="http://www.w3.org/2000/svg" width="200" height="200" viewBox="0 0 200 200"><path fill="#FFF" fill-rule="evenodd" d="M131.5 8C151.106 8 167 23.894 167 43.5a35.34 35.34 0 01-6.69 20.746A35.49 35.49 0 01164.5 64c19.606 0 35.5 15.894 35.5 35.5S184.106 135 164.5 135c-.69 0-1.376-.02-2.056-.059A35.33 35.33 0 01169 155.5c0 19.606-15.894 35.5-35.5 35.5-13.305 0-24.901-7.32-30.98-18.152C96.795 184.769 84.609 193 70.5 193 50.894 193 35 177.106 35 157.5c0-6.92 1.98-13.379 5.405-18.838-1.603.223-3.24.338-4.905.338C15.894 139 0 123.106 0 103.5S15.894 68 35.5 68c.881 0 1.755.032 2.62.095A35.345 35.345 0 0130 45.5C30 25.894 45.894 10 65.5 10c14.61 0 27.158 8.825 32.605 21.435C103.04 17.768 116.13 8 131.5 8zM100 63c-20.987 0-38 17.013-38 38s17.013 38 38 38 38-17.013 38-38-17.013-38-38-38z"/></svg>