<svg xmlns="http://www.w3.org/2000/svg" width="200" height="200" viewBox="0 0 200 200"><path fill="#000" fill-rule="evenodd" d="M115 0l.001 26.5a74.577 74.577 0 0126.36 10.926l18.743-18.743 21.213 21.213-18.743 18.743A74.577 74.577 0 01173.5 85L200 85v30l-26.5.001a74.577 74.577 0 01-10.926 26.36l18.743 18.743-21.213 21.213-18.743-18.743A74.577 74.577 0 01115 173.5L115 200H85v-26.5a74.577 74.577 0 01-26.36-10.926l-18.744 18.743-21.213-21.213 18.743-18.743A74.577 74.577 0 0126.5 115L0 115V85h26.5a74.577 74.577 0 0110.926-26.36L18.683 39.895l21.213-21.213 18.743 18.743A74.577 74.577 0 0185 26.5L85 0h30zm-15 80c-11.046 0-20 8.954-20 20s8.954 20 20 20 20-8.954 20-20-8.954-20-20-20z"/></svg>