<svg xmlns="http://www.w3.org/2000/svg" width="200" height="200" viewBox="0 0 200 200"><path fill="#FFF" fill-rule="evenodd" d="M102.25 19c8.284 0 15 6.716 15 15v40.25c0 2.75 4 2.75 8 2.75-4.46 2.839-7.5 7.57-7.5 13.25 0 5.255 2.534 10.273 6.446 13.476-4.475 2.836-7.446 7.833-7.446 13.524 0 5.275 2.553 9.954 6.491 12.87-5.052 2.688-8.491 8.007-8.491 14.13 0 5.14 2.424 9.714 6.19 12.641-4.332 2.864-7.19 7.778-7.19 13.359 0 3.968 1.445 7.6 3.837 10.395l-8.618.07c-5.55.023-13.207.035-22.969.035-25 0-61-13.5-61-48.25 0-34.403 24.748-49.448 44.648-49.745l.602-.005c5.102 0 17-8.023 17-29.25V34c0-8.284 6.716-15 15-15zm50.5 141.25c5.523 0 10 4.477 10 10s-4.477 10-10 10h-23c-5.523 0-10-4.477-10-10s4.477-10 10-10h23zm5-26c5.523 0 10 4.477 10 10s-4.477 10-10 10h-27c-5.523 0-10-4.477-10-10s4.477-10 10-10h27zm5-27c5.523 0 10 4.477 10 10s-4.477 10-10 10h-30c-5.523 0-10-4.477-10-10s4.477-10 10-10h30zm2-27c5.523 0 10 4.477 10 10s-4.477 11-10 11h-31c-5.523 0-10-5.477-10-11s4.477-10 10-10h31z"/></svg>