<svg xmlns="http://www.w3.org/2000/svg" width="200" height="200" viewBox="0 0 200 200"><path fill="#000" fill-rule="evenodd" d="M148.001 55c9.389 0 17 7.611 17 17v38h-.204l-.007.09C162.094 143.623 133.878 170 99.468 170c-34.44 0-61.711-26.424-64.27-60H35V95.416A17.933 17.933 0 0047.001 100c6.966 0 13.008-3.957 16-9.747 2.992 5.79 9.034 9.747 16 9.747 9.941 0 18-8.059 18-18v-3.195c2.842 3.364 6.872 5.425 11.346 5.67C94.985 92.1 86 106.268 86 122.5a3 3 0 006 0c0-20.97 17.445-38 39-38a3 3 0 000-6c-.27 0-.538.002-.806.006l-.096-.004-20.848-.002c-5.69 0-10.5-4.641-10.5-12s4.06-11.5 9.75-11.5h39.5zm-69-20l.305.004c6.486.162 11.695 5.47 11.695 11.996v35c0 6.525-5.209 11.834-11.695 11.996l-.305.004c-6.627 0-12-5.373-12-12V47c0-6.627 5.373-12 12-12zm-32 13a12 12 0 0110.79 6.741l.227.497.122.29.105.272.113.315.11.335.116.402.037.141.065.263c.054.232.101.466.142.702l.07.458c.03.236.055.475.072.715l.023.433.007.254L59 82c0 6.525-5.209 11.834-11.695 11.996l-.305.004c-6.627 0-12-5.373-12-12V60c0-6.627 5.373-12 12-12zm63-17a12 12 0 0110.79 6.741l.227.497.122.29.105.272.113.315.11.335.116.402.037.141.065.263c.054.232.101.466.142.702l.07.458c.03.236.055.475.072.715l.023.433.007.254v7.322h-15c-3.583 0-6.8 1.571-8.999 4.062V43c0-6.627 5.373-12 12-12zm29 4c4.346 0 8.103 2.63 9.89 6.448l.209.475.112.278.096.26.104.301.1.32.107.386.093.385c.05.222.093.446.13.672l.064.438c.029.226.05.454.067.684l.02.414.007.243v3.836h-22l.001-3.662c0-6.339 4.925-11.478 11-11.478z"/></svg>