<svg xmlns="http://www.w3.org/2000/svg" width="200" height="200" viewBox="0 0 200 200"><path fill="#FFF" fill-rule="evenodd" d="M128.166 35c6.73 0 15.367 5.582 15.367 15.73 0 .327-.01.649-.027.966-.79 6.726-6.715 11.741-12.187 11.741H99.94l-.183 2.983c-1.253 20.41-10.642 28.227-33.555 28.227-1.768 0-3.202 1.422-3.202 3.177 0 1.754 1.434 3.176 3.202 3.176 24.843 0 37.211-9.262 39.646-30.706l.054-.504h25.417c5.717 0 11.39-3.185 14.958-8.15h31.699c6.73 0 12.187 5.486 12.187 12.253 0 6.768-5.42 11.608-12.15 11.608L112.5 85.5c-8.837 0-16 7.163-16 16 0 4.93 2.23 9.339 5.735 12.274-5.723 2.437-9.735 8.113-9.735 14.726 0 4.138 1.57 7.909 4.148 10.749-6.464 2.054-11.148 8.106-11.148 15.251 0 3.783 1.313 7.26 3.509 10H75.234C39.238 164.5 10 136.726 10 100.533c0-34.758 26.912-63.195 60.928-65.396l.01-.137h57.228zM122.5 144.5c5.523 0 10 4.477 10 10 0 5.295-4.115 9.629-9.322 9.977a30.8 30.8 0 01-1.178.023h-20.5c-5.523 0-10-4.477-10-10s4.477-10 10-10h21zm7-26c5.523 0 10 4.477 10 10s-4.477 10-10 10h-21c-5.523 0-10-4.477-10-10s4.477-10 10-10h21zm13-27c5.523 0 10 4.477 10 10s-4.477 10-10 10h-30c-5.523 0-10-4.477-10-10s4.477-10 10-10h30z"/></svg>