<svg xmlns="http://www.w3.org/2000/svg" width="200" height="200" viewBox="0 0 200 200"><path fill="#000" fill-rule="evenodd" d="M200 37a19.004 19.004 0 00-18.15 13.37L180.414 55H69.844C40.63 55 15.242 75.072 8.5 103.5l-5.664 23.886c-2.548 10.747 4.099 21.526 14.846 24.074a20 20 0 004.615.54H37v22H13a3 3 0 000 6h114a3 3 0 000-6h-24v-22h17c11.046 0 20-8.954 20-20V85.353l53.613-11.038A8 8 0 00200 66.479V37zM43 152h54v22H43v-22zM173.364 20H10.636C8.628 20 7 21.79 7 24s1.628 4 3.636 4h162.728c2.008 0 3.636-1.79 3.636-4s-1.628-4-3.636-4z"/></svg>