<svg xmlns="http://www.w3.org/2000/svg" width="200" height="200" viewBox="0 0 200 200"><path fill="#000" fill-rule="evenodd" d="M138 5c5.523 0 10 4.477 10 10v26h42c5.523 0 10 4.477 10 10v137h-75v-38H75v38H0V51c0-5.523 4.477-10 10-10h42V15c0-5.523 4.477-10 10-10h76zm-13 105H75v20h50v-20zm-62 0H13v20h50v-20zm124 0h-50v20h50v-20zm-62-40H75v20h50V70zm-62 0H13v20h50V70zm124 0h-50v20h50V70zm-86.5-55C89.178 15 80 24.178 80 35.5S89.178 56 100.5 56 121 46.822 121 35.5 111.822 15 100.5 15zm3.1 8v9.1H114v6.5h-10.4V49h-6.5V38.6H88v-6.5h9.1V23h6.5z"/></svg>