<svg xmlns="http://www.w3.org/2000/svg" width="200" height="200" viewBox="0 0 200 200"><path fill="#000" fill-rule="evenodd" d="M1.694 37.097c0 15.35 1.326 42.223 11.297 56.989 8.888 13.163 26.546 14.955 26.546 17.742 0 6.452-26.546 8.602-39.537 23.656 27.111 32.796 56.482 24.731 58.741 28.494-6.777 7.527-28.805 14.517-24.852 20.43 97.714 15.054 101.668-32.795 101.668-45.16 39.537 31.72 45.186 46.774 50.834 60.752 11.296-4.839 17.17-17.978 11.296-29.57-13.33-26.311-26.546-31.183-45.75-48.925 16.944-7.527 49.704-33.87 5.648-107.527-12.426 13.979-5.648 23.119-12.426 27.957C135.557 13.978 111.269 3.763 96.584 0c-7.907 18.28-3.953 41.935-7.907 46.774-9.602 0-13.255-15.86-28.241-18.817-18.011-3.554-43.019 5.912-58.742 9.14z"/></svg>