<svg xmlns="http://www.w3.org/2000/svg" width="200" height="200" viewBox="0 0 200 200"><path fill="#FFF" fill-rule="evenodd" d="M113 151v33c0 7.18-5.82 13-13 13s-13-5.82-13-13v-33h26zM100 5c7.586 0 14.777 1.69 21.218 4.712-3.494 1.896-5.552 5.873-4.824 10.003a9.468 9.468 0 003.933 6.15 9.497 9.497 0 00-3.298 8.97 9.5 9.5 0 007.408 7.65 9.461 9.461 0 00-.226 4.284 9.5 9.5 0 0013.444 6.926 9.5 9.5 0 0012.347 8.241L150 130c0 7.18-5.82 13-13 13H63c-7.18 0-13-5.82-13-13V55c0-27.614 22.386-50 50-50z"/></svg>