<svg xmlns="http://www.w3.org/2000/svg" width="200" height="200" viewBox="0 0 200 200"><path fill="#FFF" fill-rule="evenodd" d="M100 1C76.75 45.75 7 36.754 7 96.094c0 34.377 21.293 71.379 67.525 81.325l-3.472 12.649a5 5 0 008.184 4.954l11.336-9.168 4.86 9.902a5 5 0 009.134 0l4.86-9.902 11.335 9.168a5 5 0 008.184-4.955l-3.472-12.648C171.706 167.473 193 130.471 193 96.094 193 36.754 123.25 45.75 100 1zM78.666 59.73a6.62 6.62 0 01-.837 9.339c-27.446 22.89-27.72 52.117-1.404 70.054l.806.54a6.622 6.622 0 011.88 9.186 6.651 6.651 0 01-9.204 1.877c-34.875-22.997-34.875-63.243-.598-91.832a6.652 6.652 0 019.357.836zm39.486 0a6.652 6.652 0 019.357-.836c34.277 28.59 34.277 68.835-.598 91.832a6.651 6.651 0 01-9.204-1.877 6.621 6.621 0 011.675-9.045l.205-.14c27.125-17.887 27.125-47.473-.598-70.595a6.62 6.62 0 01-.837-9.339z"/></svg>