<svg xmlns="http://www.w3.org/2000/svg" width="200" height="200" viewBox="0 0 200 200"><path fill="#FFF" fill-rule="evenodd" d="M182.06 17.94c10.587 10.589 10.587 27.755 0 38.343l-36.695 36.694 9.582 9.59-9.586 9.585-9.581-9.59-78.28 78.28-11.395 1.637-1.392 1.565c-6.86 6.86-17.5 7.846-25.688 2.48l-1.602-1.159-1.735-1.605-1.306-1.484c-6.377-8.053-5.744-19.671 1.574-26.989l.698-.666.867-.745 1.634-11.373L97.438 64.22l-9.59-9.581 9.586-9.586 9.59 9.582 36.693-36.694c10.588-10.588 27.754-10.588 38.342 0zm-75.046 55.856l-75.077 75.076-1.91 13.221-2.958 1.629a6.784 6.784 0 00-1.527 1.15c-2.133 2.134-2.562 5.369-1.387 7.733l.601.955.502.63.881.8c2.674 2.118 6.55 1.906 8.988-.532l.633-.726.515-.795 1.627-2.949 13.178-1.916 75.105-75.105-19.171-19.17z"/></svg>