<svg xmlns="http://www.w3.org/2000/svg" width="200" height="200" viewBox="0 0 200 200"><path fill="#000" fill-rule="evenodd" d="M99.844 59.028c20.987 0 38 27.087 38 60.5s-17.013 60.5-38 60.5-38-27.087-38-60.5 17.013-60.5 38-60.5zM55 121c0 24.013 10.344 49.028 25.844 59.028C54.392 173.723 29 148.248 29 119.644c0-29.969 27.594-60.116 49.968-59.66C64.712 71.563 55 94.543 55 121zm116-1.356c0 28.604-22.204 54.077-48.656 60.384C134.48 167.668 145 145.013 145 121c0-26.458-9.712-49.438-23.968-61.015 25.062.043 49.968 29.69 49.968 59.659zM56.344 61.778C36.725 74.612 22 95.112 22 118.984c0 25.927 19.094 52.544 41.594 61.044C20.844 180.028 5 150.922 5 120.083c0-28.72 27.344-63.555 51.344-58.305zm138.482 58.305c0 30.753-14.732 59.945-55.732 59.945 22.197-10.44 38.906-35.13 38.906-61.044 0-23.842-12.987-44.687-32.35-55.998 27.444-2.208 49.176 28.121 49.176 57.097zm-87.232-94.305c-.652 2.01-1.75 3.72-1.75 7.75 0 2.75 2.128 7.157 4.111 7.72 7.139 2.03 13.889 6.624 16.037 12.236-7.665-1.575-16.24-2.456-25.292-2.456-9.357 0-18.205.942-26.065 2.617 2.164-5.875 8.58-10.607 16.9-12.598-.794-3.513-1.191-6.935-1.191-10.269 0-5 4.5-11.25 10.25-10.75s7.778 3.352 7 5.75z"/></svg>