<svg xmlns="http://www.w3.org/2000/svg" width="200" height="200" viewBox="0 0 200 200"><path fill="#000" fill-rule="evenodd" d="M100 0c22.491 0 40.724 18.233 40.724 40.724 0 1.354-.067 2.706-.202 4.053l-13.034 130.347C126.075 189.246 114.192 200 100 200s-26.075-10.754-27.488-24.876L59.478 44.777C57.24 22.397 73.568 2.44 95.948.202A40.724 40.724 0 01100 0zm0 166c-5.523 0-10 4.477-10 10s4.477 10 10 10 10-4.477 10-10-4.477-10-10-10zm0-131c-5.523 0-10 4.477-10 10s4.477 10 10 10 10-4.477 10-10-4.477-10-10-10z"/></svg>