<svg xmlns="http://www.w3.org/2000/svg" width="200" height="200" viewBox="0 0 200 200"><path fill="#000" fill-rule="evenodd" d="M100 0c11.271 0 20.408 9.145 20.408 20.426 0 9.145-6.006 16.887-14.285 19.49l-.001 19.317 56.551.001c11.598 0 21 9.402 21 21v17.808H189c6.075 0 11 4.925 11 11v29.064c0 6.076-4.925 11-11 11h-5.327v30.128c0 11.598-9.402 21-21 21H37.327c-11.598 0-21-9.402-21-21l-.001-30.128H11c-6.075 0-11-4.924-11-11v-29.063c0-6.076 4.925-11 11-11l5.326-.001V80.234c0-11.598 9.403-21 21-21h56.551V39.915c-8.28-2.603-14.285-10.345-14.285-19.49C79.592 9.145 88.729 0 100 0zm16.5 147h-33a7.5 7.5 0 00-.243 14.996l.243.004h33a7.5 7.5 0 00.243-14.996L116.5 147zM68.367 86.809c-11.27 0-20.408 9.144-20.408 20.425 0 11.28 9.137 20.426 20.408 20.426s20.409-9.145 20.409-20.426c0-11.28-9.138-20.425-20.409-20.425zm63.266 0c-11.271 0-20.409 9.144-20.409 20.425 0 11.28 9.138 20.426 20.409 20.426 11.27 0 20.408-9.145 20.408-20.426 0-11.28-9.137-20.425-20.408-20.425z"/></svg>