<svg xmlns="http://www.w3.org/2000/svg" width="200" height="200" viewBox="0 0 200 200"><path fill="#FFF" fill-rule="evenodd" d="M158.566 56a94.812 94.812 0 018.03 7.19c36.539 36.658 36.539 96.091 0 132.749-5.398 5.415-14.15 5.415-19.548 0-5.32-5.338-5.396-13.945-.228-19.377l.228-.234c25.433-25.515 25.74-66.692.921-92.585A58.448 58.448 0 00158.566 56zm-117.13 0a58.44 58.44 0 0010.596 27.746l-.58.608c-23.987 25.662-23.742 65.83.735 91.195l.765.78c5.397 5.414 5.397 14.194 0 19.61-5.398 5.415-14.15 5.415-19.548 0-36.539-36.658-36.539-96.09 0-132.748A94.665 94.665 0 0141.436 56zM100 1c26.51 0 48 21.49 48 48s-21.49 48-48 48-48-21.49-48-48S73.49 1 100 1zm-.5 38C93.701 39 89 43.701 89 49.5S93.701 60 99.5 60 110 55.299 110 49.5 105.299 39 99.5 39z"/></svg>