<svg xmlns="http://www.w3.org/2000/svg" width="200" height="200" viewBox="0 0 200 200"><path fill="#000" fill-rule="evenodd" d="M70 56h60V34c0-16.569-13.431-30-30-30-16.569 0-30 13.431-30 30v22zm30 140c11.277 0 20.42-9.142 20.42-20.42 0-.506-.02-1.013-.057-1.519L112 62H88l-8.363 112.061c-.839 11.246 7.597 21.043 18.843 21.882A20.42 20.42 0 00100 196zm-25.02-17.655c.254-.962.418-1.945.493-2.937L84 62H70L41.235 166.063c-2.825 10.22 3.074 20.79 13.202 23.78l.447.126L55 190c8.736 2.299 17.682-2.92 19.98-11.655zm50.04 0c2.271 8.632 11.032 13.83 19.668 11.734l.428-.11.116-.031c10.33-2.856 16.389-13.545 13.533-23.875L130 62h-14l8.527 113.408c.075.992.24 1.975.492 2.937z"/></svg>