<svg xmlns="http://www.w3.org/2000/svg" width="200" height="200" viewBox="0 0 200 200"><path fill="#FFF" fill-rule="evenodd" d="M109.377 18.265a24.348 24.348 0 018.484 8.195l74.462 119.3c7.12 11.407 3.644 26.427-7.763 33.547A24.348 24.348 0 01171.668 183H28.348C14.901 183 4 172.099 4 158.652c0-4.273 1.124-8.47 3.26-12.171l68.858-119.3c6.722-11.647 21.613-15.639 33.259-8.916zM98.379 37.319a2.348 2.348 0 00-3.207.86l-68.858 119.3A2.348 2.348 0 0028.348 161h143.32a2.348 2.348 0 001.992-3.591l-74.462-119.3a2.348 2.348 0 00-.656-.688l-.163-.102z"/></svg>