<svg xmlns="http://www.w3.org/2000/svg" width="200" height="200" viewBox="0 0 200 200"><path fill="#FFF" fill-rule="evenodd" d="M100 2a3 3 0 013 3v5.458c4.057 1.274 7 5.064 7 9.542s-2.943 8.268-7 9.542v12.215l19.9-19.9a3 3 0 014.242 4.244l-24.041 24.041-.102.095v10.336L112.426 70h11.444V46.988a3 3 0 116 0v18.898l22.39-22.389a3.003 3.003 0 01-.106-.793v-24a3 3 0 016 0l.001 18.898 8.313-8.313a3 3 0 014.243 4.243l-8.313 8.313h18.898a3 3 0 010 6h-24c-.274 0-.54-.036-.793-.105l-22.39 22.389h18.9a3 3 0 110 6h-23.014v11.444l9.446 9.446h10.318l.095-.099 24.041-24.041a3 3 0 014.243 4.242L158.243 97.02h12.215c1.248-3.972 4.907-6.876 9.262-6.995l.28-.004c4.477 0 8.267 2.942 9.542 6.999H195a3 3 0 010 6h-5.458c-1.274 4.058-5.064 7-9.542 7s-8.268-2.942-9.542-7h-12.215l19.9 19.9a3 3 0 01-4.244 4.243l-24.041-24.042-.095-.101h-10.357l-9.407 9.407v11.443h23.013a3 3 0 110 6h-18.9l22.392 22.39c.252-.069.518-.106.792-.106h24a3 3 0 010 6h-18.899l8.314 8.314a3 3 0 11-4.243 4.243l-8.314-8.314v18.9a3 3 0 01-6 0v-24c0-.275.037-.541.106-.794l-22.39-22.39v18.9a3 3 0 11-6 0V130h-11.445L103 139.425l.001 10.338.1.095 24.041 24.041a3 3 0 01-4.243 4.243l-19.898-19.899v12.215c3.972 1.248 6.875 4.907 6.995 9.262l.004.28c0 4.477-2.942 8.267-7 9.542V195a3 3 0 01-6 0v-5.458c-4.057-1.274-7-5.064-7-9.542s2.943-8.268 7-9.542v-12.215l-19.9 19.9a3 3 0 01-4.242-4.244l24.041-24.041.102-.095L97 139.427 87.573 130H76.129v23.012a3 3 0 11-6 0v-18.9l-22.39 22.392c.07.252.107.518.107.792v24a3 3 0 01-6 0v-18.899l-8.314 8.314a3 3 0 11-4.243-4.243l8.314-8.314h-18.9a3 3 0 010-6h24c.275 0 .541.037.794.106l22.39-22.39h-18.9a3 3 0 010-6H70v-11.444l-9.405-9.405-10.357.001-.095.1-24.041 24.041a3 3 0 11-4.243-4.243l19.899-19.898H29.542c-1.248 3.972-4.907 6.875-9.262 6.995l-.28.004c-4.477 0-8.267-2.943-9.542-7H5a3 3 0 110-6h5.458c1.274-4.057 5.064-7 9.542-7s8.268 2.943 9.542 7h12.215l-19.9-19.9a3 3 0 114.244-4.242L50.142 96.92l.095.102 10.315-.001 9.447-9.447V76.129H46.988a3 3 0 110-6h18.898L43.497 47.74c-.253.07-.519.107-.793.107h-24a3 3 0 010-6l18.898-.001-8.313-8.313a3 3 0 114.243-4.243l8.313 8.313V18.704a3 3 0 116 0v24c0 .274-.036.54-.105.793l22.389 22.39v-18.9a3 3 0 116 0V70h11.443l9.426-9.426V50.237l-.099-.095-24.041-24.041a3 3 0 114.243-4.243l19.898 19.899V29.542c-3.972-1.248-6.875-4.907-6.995-9.262L90 20c0-4.477 2.942-8.267 7-9.542V5a3 3 0 013-3z"/></svg>