<svg xmlns="http://www.w3.org/2000/svg" width="200" height="200" viewBox="0 0 200 200"><path fill="#FFF" fill-rule="evenodd" d="M143.52 34.624c22.828 4.914 40.48 15.9 40.48 39.74 0 73.152-46.225 121.26-85.808 121.26C58.609 195.624 16 165.64 16 74.364c0-23.063 15.227-34.096 35.933-39.24l5.884 2.66a6 6 0 013.4 6.703L57.77 60.875a7 7 0 009.088 8.074l27.12-9.15a10 10 0 016.394 0l27.12 9.15a7 7 0 009.088-8.074l-3.448-16.388a6 6 0 013.4-6.703l6.99-3.16zM108 169c-2.667 1.94-4 4.107-4 6.5s1.333 4.56 4 6.5c2.667-1.94 4-4.107 4-6.5s-1.333-4.56-4-6.5zm-52-28c-2.667 1.94-4 4.107-4 6.5s1.333 4.56 4 6.5c2.667-1.94 4-4.107 4-6.5s-1.333-4.56-4-6.5zm80-13c-2.667 1.94-4 4.107-4 6.5s1.333 4.56 4 6.5c2.667-1.94 4-4.107 4-6.5s-1.333-4.56-4-6.5zm-44-13c-2.667 1.94-4 4.107-4 6.5s1.333 4.56 4 6.5c2.667-1.94 4-4.107 4-6.5s-1.333-4.56-4-6.5zm70-15c-2.667 1.94-4 4.107-4 6.5s1.333 4.56 4 6.5c2.667-1.94 4-4.107 4-6.5s-1.333-4.56-4-6.5zM40 81c-2.667 1.94-4 4.107-4 6.5s1.333 4.56 4 6.5c2.667-1.94 4-4.107 4-6.5s-1.333-4.56-4-6.5zm60-6c-2.667 1.94-4 4.107-4 6.5s1.333 4.56 4 6.5c2.667-1.94 4-4.107 4-6.5s-1.333-4.56-4-6.5zm.89-68.676a5 5 0 01.286.286l11.005 11.935a6 6 0 003.806 1.902l23.348 2.368a3 3 0 01.988 5.693l-12.161 5.795a6 6 0 00-3.246 6.848l3.686 15a3 3 0 01-3.947 3.531l-23.71-8.7a10 10 0 00-6.89 0l-23.71 8.7a3 3 0 01-3.947-3.532l3.686-14.999a6 6 0 00-3.246-6.848l-12.161-5.795a3 3 0 01.988-5.693l23.348-2.368a6 6 0 003.806-1.902L93.824 6.61a5 5 0 017.066-.286z"/></svg>