<svg xmlns="http://www.w3.org/2000/svg" width="200" height="200" viewBox="0 0 200 200"><path fill="#FFF" fill-rule="evenodd" d="M100 168c5.523 0 10 4.477 10 10v12c0 5.523-4.477 10-10 10s-10-4.477-10-10v-12c0-5.523 4.477-10 10-10zm-48.083-19.917c3.905 3.906 3.905 10.237 0 14.142l-8.486 8.486c-3.905 3.905-10.236 3.905-14.142 0-3.905-3.906-3.905-10.237 0-14.142l8.486-8.486c3.905-3.905 10.236-3.905 14.142 0zm110.308 0l8.486 8.486c3.905 3.905 3.905 10.236 0 14.142-3.906 3.905-10.237 3.905-14.142 0l-8.486-8.486c-3.905-3.905-3.905-10.236 0-14.142 3.906-3.905 10.237-3.905 14.142 0zM100 40c33.137 0 60 26.863 60 60s-26.863 60-60 60-60-26.863-60-60 26.863-60 60-60zm90 50c5.523 0 10 4.477 10 10s-4.477 10-10 10h-12c-5.523 0-10-4.477-10-10s4.477-10 10-10h12zM22 90c5.523 0 10 4.477 10 10s-4.477 10-10 10H10c-5.523 0-10-4.477-10-10s4.477-10 10-10h12zm21.431-60.71l8.486 8.485c3.905 3.905 3.905 10.236 0 14.142-3.906 3.905-10.237 3.905-14.142 0l-8.486-8.486c-3.905-3.905-3.905-10.236 0-14.142 3.906-3.905 10.237-3.905 14.142 0zm127.28 0c3.905 3.905 3.905 10.236 0 14.141l-8.486 8.486c-3.905 3.905-10.236 3.905-14.142 0-3.905-3.906-3.905-10.237 0-14.142l8.486-8.486c3.905-3.905 10.236-3.905 14.142 0zM100 0c5.523 0 10 4.477 10 10v12c0 5.523-4.477 10-10 10s-10-4.477-10-10V10c0-5.523 4.477-10 10-10z"/></svg>