<svg xmlns="http://www.w3.org/2000/svg" width="200" height="200" viewBox="0 0 200 200"><path fill="#FFF" fill-rule="evenodd" d="M100 161c-21.718 0-38.782 12.038-49.464 26.333a898.676 898.676 0 01-4.3 6.436A69.499 69.499 0 0042.942 200H22l1.59-2.326 1.895-2.793c8.146-12.046 15.39-23.34 21.734-33.881H100zm52.78 0c7.235 12.022 15.642 25.022 25.22 39h-20.942a69.647 69.647 0 00-3.291-6.229 885.276 885.276 0 01-4.303-6.437C138.784 173.04 121.718 161 100 161h52.78zm5.22-12v8H42v-8h116zm-31.26-39c3.992 10.329 9.586 21.996 16.784 35h-20c-4.538-8.199-8.438-15.865-11.702-23H88.178l-.731 1.584c-3.11 6.683-6.767 13.821-10.97 21.416h-20c7.197-13.005 12.792-24.671 16.783-35h53.48zM132 98v8H68v-8h64zM95.7 30.001h9.018l1.02 4.257C112.063 60.52 117.265 80.435 121.347 94H78.813l.653-2.052.667-2.128.666-2.162C85.796 71.316 90.763 52.097 95.701 30zM110 18v8H90v-8h20zm-8-18v10h3v4H95v-4h3V0h4z"/></svg>