<svg xmlns="http://www.w3.org/2000/svg" width="200" height="200" viewBox="0 0 200 200"><path fill="#FFF" fill-rule="evenodd" d="M114.547 120.243l31.598 56.877c-13.663 7.607-29.398 11.94-46.145 11.94-16.747 0-32.481-4.333-46.144-11.94l31.598-56.877A29.859 29.859 0 00100 124a29.865 29.865 0 0014.547-3.757zM100 74c11.046 0 20 8.954 20 20s-8.954 20-20 20-20-8.954-20-20 8.954-20 20-20zM53.856 11l31.546 56.785c-9.059 5.055-15.226 14.67-15.398 25.74L70 94.06H5C5 58.34 24.714 27.224 53.856 11zm92.289 0C175.286 27.226 195 58.34 195 94.06h-65V94c0-11.27-6.214-21.088-15.402-26.215L146.145 11z"/></svg>