<svg xmlns="http://www.w3.org/2000/svg" width="200" height="200" viewBox="0 0 200 200"><path fill="#000" fill-rule="evenodd" d="M95 0c6.667 20 20 40 40 60l-10.877-3.613C131.374 72.129 141.667 86.667 155 100l-13.92-6.966c2.613 11.31 10.587 23.633 23.92 36.966l-9.56-2.378C161.812 142.54 171.666 160 185 180l-12.953-5.168 2.953 9.783L155 180l.04 14.148L135 180l.017 17.715c-6.402.795-13.24 1.382-20.287 1.762L105 180l-9.964 20c-13.885 0-27.77-.76-40.052-2.285L55 180l-20.025 14.152L35 180c-12.703 3.885-19.37 5.423-20 4.615a639.254 639.254 0 019.356-29.276L15 160c13.333-20 21.67-35.33 25.009-45.992L25 120c20-26.667 34.011-48.663 42.033-65.989L55 60C75 40 88.333 20 95 0z"/></svg>